<svg width="217" height="76" viewBox="0 0 217 76" fill="none" xmlns="http://www.w3.org/2000/svg">
<path d="M90.158 32.9977C90.158 31.9008 90.3918 30.8504 90.8637 29.8466C91.3334 28.8405 91.9994 27.9674 92.8639 27.2206C93.7283 26.4738 94.7736 25.8733 96.0019 25.4168C97.2302 24.9603 98.6151 24.7321 100.161 24.7321C101.586 24.7321 102.88 24.9603 104.049 25.4168C105.215 25.8733 106.223 26.5137 107.072 27.3359C107.919 28.158 108.572 29.1264 109.026 30.2366C109.48 31.349 109.708 32.559 109.708 33.8686H104.481C104.481 32.59 104.102 31.5839 103.345 30.8526C102.587 30.1214 101.526 29.7557 100.163 29.7557C98.8004 29.7557 97.7374 30.0903 96.981 30.7618C96.2224 31.431 95.8453 32.1623 95.8453 32.9534C95.8453 33.8066 96.2092 34.4603 96.9369 34.9168C97.6647 35.3733 98.5732 35.7854 99.6648 36.1511C100.756 36.5167 101.945 36.8979 103.235 37.2923C104.523 37.689 105.712 38.2208 106.803 38.8901C107.895 39.5593 108.803 40.4368 109.531 41.516C110.259 42.5974 110.623 44.0068 110.623 45.7419C110.623 46.7768 110.373 47.7828 109.873 48.7557C109.372 49.7307 108.667 50.606 107.758 51.3816C106.85 52.1572 105.749 52.7821 104.463 53.2541C103.176 53.7261 101.742 53.9633 100.168 53.9633C98.56 53.9633 97.1288 53.735 95.8718 53.2785C94.6148 52.822 93.5453 52.1749 92.6676 51.3373C91.7877 50.4997 91.1151 49.5113 90.6432 48.3679C90.1735 47.2266 89.9397 45.9702 89.9397 44.5985H95.3933C95.3933 45.8771 95.8167 46.9208 96.6657 47.7274C97.5125 48.5341 98.6813 48.9374 100.165 48.9374C101.771 48.9374 102.968 48.5939 103.756 47.9092C104.543 47.2244 104.938 46.4244 104.938 45.5114C104.938 44.6295 104.574 43.9425 103.846 43.455C103.118 42.9675 102.21 42.5331 101.118 42.152C100.026 41.7708 98.8379 41.3986 97.55 41.0329C96.2599 40.6673 95.0713 40.1642 93.9797 39.526C92.8881 38.8856 91.9795 38.0568 91.2518 37.0375C90.5219 36.0203 90.158 34.673 90.158 32.9977Z" fill="#141414"/>
<path d="M124.251 48.7114C126.07 48.7114 127.508 48.1795 128.569 47.1136C129.63 46.0477 130.161 44.6007 130.161 42.7747V24.9603H135.615V42.7747C135.615 44.3902 135.335 45.8749 134.774 47.2289C134.214 48.5851 133.427 49.764 132.413 50.77C131.396 51.7739 130.192 52.5583 128.798 53.1234C127.402 53.6885 125.89 53.9677 124.251 53.9677C122.615 53.9677 121.1 53.6863 119.706 53.1234C118.312 52.5606 117.108 51.7761 116.092 50.77C115.075 49.764 114.288 48.5851 113.728 47.2289C113.168 45.8749 112.887 44.3902 112.887 42.7747V24.9603H118.343V42.7747C118.343 44.6029 118.872 46.05 119.935 47.1136C120.994 48.1795 122.434 48.7114 124.251 48.7114Z" fill="#141414"/>
<path d="M150.163 24.958C151.526 24.958 152.8 25.2084 153.98 25.7114C155.162 26.2145 156.201 26.8992 157.094 27.7679C157.987 28.6366 158.684 29.6559 159.184 30.8282C159.685 32.0004 159.934 33.2414 159.934 34.5511C159.934 35.8607 159.685 37.1017 159.184 38.2739C158.684 39.4462 157.987 40.4655 157.094 41.3342C156.198 42.2029 155.162 42.8876 153.98 43.3907C152.798 43.8937 151.526 44.1441 150.163 44.1441H144.936V53.7371H139.483V24.958H150.163ZM150.163 38.89C150.738 38.89 151.283 38.7681 151.799 38.5243C152.313 38.2806 152.769 37.9615 153.162 37.5648C153.557 37.1704 153.874 36.7116 154.117 36.1953C154.359 35.679 154.481 35.1294 154.481 34.5511C154.481 33.9727 154.359 33.4253 154.117 32.9068C153.874 32.3905 153.557 31.9317 153.162 31.5373C152.767 31.1429 152.313 30.8215 151.799 30.5778C151.283 30.334 150.738 30.2121 150.163 30.2121H144.936V38.8922H150.163V38.89Z" fill="#141414"/>
<path d="M159.257 50.9938C159.257 50.2027 159.553 49.5091 160.144 48.9152C160.735 48.3214 161.423 48.0244 162.212 48.0244C162.999 48.0244 163.69 48.3214 164.281 48.9152C164.872 49.5091 165.167 50.2027 165.167 50.9938C165.167 51.7872 164.872 52.4786 164.281 53.0725C163.69 53.6663 162.999 53.9633 162.212 53.9633C161.423 53.9633 160.735 53.6663 160.144 53.0725C159.55 52.4786 159.257 51.7872 159.257 50.9938Z" fill="#141414"/>
<path d="M175.393 53.7351L165.163 24.9559H170.846L178.119 45.968L185.392 24.9559H191.074L180.844 53.7351H175.393Z" fill="#141414"/>
<path d="M195.394 39.3465C195.394 40.7159 195.622 41.9724 196.076 43.1137C196.53 44.2549 197.137 45.2454 197.895 46.0831C198.652 46.9207 199.538 47.5678 200.555 48.0243C201.569 48.4808 202.652 48.709 203.805 48.709C204.776 48.709 205.653 48.565 206.443 48.2747C207.23 47.9866 207.936 47.6055 208.558 47.1335C209.177 46.6615 209.693 46.1274 210.103 45.5357C210.514 44.9419 210.838 44.3258 211.08 43.6854H216.761C216.428 45.0571 215.881 46.3645 215.125 47.6143C214.366 48.8642 213.436 49.9522 212.329 50.8807C211.222 51.8092 209.949 52.556 208.509 53.1189C207.069 53.684 205.501 53.9632 203.803 53.9632C201.924 53.9632 200.145 53.5909 198.462 52.8441C196.779 52.0973 195.308 51.0624 194.054 49.7373C192.795 48.4121 191.796 46.8676 191.052 45.1014C190.309 43.3353 189.939 41.4162 189.939 39.3465C189.939 37.3055 190.309 35.3953 191.052 33.6137C191.796 31.832 192.795 30.2786 194.054 28.9534C195.311 27.6283 196.782 26.5934 198.462 25.8466C200.145 25.0998 201.924 24.7275 203.803 24.7275C205.439 24.7275 206.963 25.009 208.372 25.5718C209.782 26.1369 211.032 26.8815 212.123 27.81C213.215 28.7385 214.139 29.8288 214.895 31.0764C215.652 32.3262 216.199 33.6336 216.532 35.0053H210.851C210.67 34.3649 210.381 33.7489 209.989 33.155C209.594 32.5611 209.102 32.0292 208.511 31.5572C207.92 31.0852 207.23 30.7041 206.443 30.416C205.653 30.1257 204.776 29.9817 203.805 29.9817C202.654 29.9817 201.569 30.2099 200.555 30.6664C199.538 31.1229 198.652 31.77 197.895 32.6076C197.137 33.4453 196.532 34.4358 196.076 35.5771C195.622 36.7205 195.394 37.977 195.394 39.3465Z" fill="#141414"/>
<path d="M24.8917 33.2549V27.1631H0.647217V51.5257C0.647217 64.9813 11.5014 75.8884 24.8917 75.8884V51.528V33.2549Z" fill="#141414"/>
<path d="M53.7672 0.475708H29.5227V24.8384H53.7672V49.201C67.1574 49.201 78.0116 38.2939 78.0116 24.8384C78.0138 11.3828 67.1574 0.475708 53.7672 0.475708Z" fill="#141414"/>
<path d="M27.2073 27.1649V33.2567V51.5298V75.8925C40.5975 75.8925 51.4517 64.9853 51.4517 51.5298V27.1649H27.2073Z" fill="#141414"/>
</svg>
