<svg width="272" height="78" viewBox="0 0 272 78" fill="none" xmlns="http://www.w3.org/2000/svg">
<path d="M34.1085 42.3521C33.0015 42.3521 31.9981 41.9001 31.2726 41.171C30.547 40.442 30.0972 39.4337 30.0972 38.3212C30.0972 37.2088 30.547 36.2005 31.2726 35.4715C31.9981 34.7424 33.0015 34.2903 34.1085 34.2903C35.2155 34.2903 36.2189 34.7424 36.9444 35.4715C37.67 36.2005 38.1198 37.2088 38.1198 38.3212C38.1198 39.4337 37.67 40.442 36.9444 41.171C36.2189 41.9001 35.2155 42.3521 34.1085 42.3521ZM18.4292 30.368C18.8945 30.0977 19.2077 29.6633 19.3356 29.1803C19.4635 28.6972 19.4106 28.1631 19.1415 27.6955C18.8725 27.228 18.4402 26.9133 17.9595 26.7848C17.4788 26.6562 16.9473 26.7094 16.482 26.9798C16.0167 27.2501 15.7035 27.6845 15.5756 28.1675C15.4477 28.6506 15.5007 29.1847 15.7697 29.6523C16.0387 30.1198 16.471 30.4345 16.9517 30.563C17.4347 30.6916 17.9639 30.6362 18.4292 30.368ZM49.0645 29.6456C49.3335 30.1132 49.7657 30.4279 50.2465 30.5564C50.7272 30.6849 51.2587 30.6317 51.724 30.3614C52.1893 30.091 52.5024 29.6567 52.6303 29.1736C52.7582 28.6905 52.7053 28.1565 52.4363 27.6889C52.1672 27.2213 51.735 26.9066 51.2543 26.7781C50.7735 26.6496 50.2421 26.7028 49.7768 26.9731C49.3115 27.2435 48.9983 27.6778 48.8704 28.1609C48.7403 28.6462 48.7954 29.178 49.0645 29.6456ZM33.136 55.9362C32.6707 56.2065 32.3575 56.6409 32.2296 57.124C32.1017 57.6071 32.1547 58.1411 32.4237 58.6087C32.6927 59.0763 33.125 59.3909 33.6057 59.5195C34.0864 59.648 34.6179 59.5948 35.0832 59.3245C35.5485 59.0541 35.8617 58.6198 35.9896 58.1367C36.1175 57.6536 36.0646 57.1195 35.7955 56.652C35.5265 56.1844 35.0942 55.8697 34.6135 55.7412C34.1306 55.6104 33.6013 55.6658 33.136 55.9362ZM68.217 18.5324V34.8887V51.2449C68.217 53.3634 67.6503 55.4066 66.627 57.1882C65.6038 58.9699 64.1241 60.4856 62.3003 61.5427L48.2044 69.7197L34.1085 77.8967L20.0126 69.7197L5.91667 61.5427C4.09293 60.4834 2.61321 58.9677 1.58998 57.1882C0.566747 55.4088 0 53.3634 0 51.2449V34.8887V18.5324L14.0959 10.3554L28.1918 2.17835C30.0178 1.1191 32.062 0.589478 34.1085 0.589478C36.155 0.589478 38.2014 1.1191 40.0252 2.17835L54.1211 10.3554L68.217 18.5324ZM47.3333 8.03301C49.2056 9.92769 51.1396 12.2589 52.7759 15.0178C54.4122 17.7767 55.753 20.9611 56.4366 24.5599L61.2815 21.7478L66.1264 18.9357L56.7299 13.4844L47.3333 8.03301ZM14.6186 11.6672C19.3245 10.4174 25.3978 9.71938 31.6739 11.4656C37.9522 13.2096 44.4335 17.3956 49.9598 25.9094C49.8495 25.9427 49.7393 25.9781 49.6312 26.0225C49.5232 26.0668 49.4173 26.1155 49.3159 26.1754C49.102 26.2995 48.9123 26.4479 48.7469 26.6164C48.5815 26.7848 48.4382 26.9709 48.3191 27.1681C47.6972 26.818 46.9783 26.5543 46.1756 26.3792C45.3729 26.2042 44.4886 26.1155 43.5381 26.1155C43.3595 26.1155 43.1743 26.1222 42.989 26.131C42.8038 26.1399 42.6141 26.1532 42.4267 26.1665C42.7928 27.1083 43.1169 28.1166 43.3926 29.1825C43.6682 30.2484 43.8976 31.3719 44.074 32.5419C44.9958 33.2821 45.8514 34.0444 46.6321 34.8178C47.4127 35.5933 48.1228 36.38 48.7513 37.1711C49.4107 36.1784 49.9245 35.1989 50.2751 34.2527C50.6258 33.3064 50.8154 32.3979 50.8287 31.5469C51.0602 31.5403 51.2918 31.5071 51.5211 31.445C51.7482 31.383 51.9732 31.2899 52.1871 31.1658C52.2709 31.117 52.3503 31.0661 52.4275 31.0107C52.5046 30.9553 52.5774 30.8954 52.648 30.8334C53.1133 31.9924 53.475 33.2023 53.7219 34.4543C53.9689 35.7064 54.0968 37.0005 54.0968 38.3235C54.0968 38.421 54.0968 38.5207 54.0946 38.6182C54.0924 38.7157 54.0902 38.8132 54.088 38.9129C54.5864 37.293 54.9591 35.6886 55.1994 34.1042C55.4398 32.5198 55.5501 30.9531 55.5258 29.4085C55.4905 27.0573 55.1509 24.746 54.5114 22.4946C53.8719 20.2431 52.9325 18.0493 51.6997 15.9286C49.7481 12.5758 47.3356 9.87007 45.1237 7.82027C42.9118 5.77048 40.9007 4.37661 39.7539 3.64755C39.7186 3.62539 39.3305 3.3905 39.3305 3.3905C37.7207 2.45756 35.9146 1.98999 34.1107 1.98999C32.3046 1.98999 30.5007 2.45756 28.8909 3.3905L21.7569 7.52998L14.6186 11.6672ZM17.9242 47.5043C17.9463 47.5442 17.9683 47.5841 17.9926 47.624C18.0168 47.6639 18.0389 47.7038 18.0609 47.7414C18.6255 48.6744 19.5054 49.3702 20.6323 49.8333C21.7591 50.2965 23.1308 50.5247 24.6789 50.5247C24.8575 50.5247 25.0427 50.5181 25.228 50.5092C25.4132 50.5004 25.6029 50.4871 25.7903 50.4738C25.4243 49.532 25.1001 48.5237 24.8244 47.4578C24.5488 46.3919 24.3194 45.2684 24.143 44.0983C23.2212 43.3582 22.3656 42.5959 21.5849 41.8225C20.8043 41.0469 20.0942 40.2602 19.4657 39.4691C18.4667 40.9716 17.8029 42.4452 17.5273 43.8125C17.2538 45.182 17.3663 46.4384 17.9242 47.5043ZM18.6101 38.3212C18.0036 37.4504 17.4986 36.5773 17.0973 35.7219C16.6981 34.8643 16.4048 34.02 16.2284 33.2023C15.9968 34.0156 15.8182 34.8532 15.6969 35.7064C15.5756 36.5617 15.5139 37.4348 15.5139 38.3212C15.5139 39.2099 15.5778 40.0807 15.6991 40.9361C15.8204 41.7915 15.999 42.6269 16.2306 43.4402C16.407 42.6225 16.7003 41.7782 17.0995 40.9206C17.4964 40.063 18.0036 39.1921 18.6101 38.3212ZM23.7196 38.3212C23.7196 37.672 23.735 37.0293 23.7659 36.3978C23.7968 35.7662 23.8409 35.1435 23.9004 34.5319C23.197 35.1479 22.542 35.7773 21.94 36.4111C21.3379 37.0448 20.7888 37.683 20.2949 38.3212C20.7866 38.9594 21.3379 39.5977 21.94 40.2314C22.542 40.8652 23.197 41.4923 23.9004 42.1106C23.8431 41.499 23.7968 40.8763 23.7659 40.2447C23.735 39.611 23.7196 38.9705 23.7196 38.3212ZM20.7866 51.338C21.9708 52.5634 23.3227 53.6249 24.8002 54.4891C26.2777 55.3534 27.8853 56.016 29.5855 56.4459C28.9681 55.883 28.3881 55.2071 27.8478 54.4337C27.3075 53.6581 26.8113 52.7828 26.3615 51.8211C26.0726 51.8477 25.7881 51.8676 25.5081 51.8809C25.228 51.8942 24.9501 51.9009 24.6767 51.9009C23.9511 51.9009 23.2609 51.8521 22.6104 51.759C21.9642 51.6593 21.3534 51.5197 20.7866 51.338ZM27.1951 50.3297C27.9934 50.2211 28.8181 50.0616 29.6649 49.8555C30.5117 49.6494 31.3828 49.3924 32.2671 49.0866C31.7048 48.8295 31.1424 48.5591 30.5823 48.2711C30.0222 47.9852 29.4643 47.6816 28.9129 47.3603C28.3528 47.0345 27.8081 46.6999 27.2789 46.3587C26.7496 46.0152 26.2358 45.6651 25.7374 45.3083C25.916 46.2257 26.1299 47.1077 26.3725 47.9475C26.6173 48.7874 26.8929 49.5829 27.1951 50.3297ZM34.1085 48.3907C34.8539 48.0827 35.6059 47.7481 36.3601 47.3802C37.1142 47.0124 37.8684 46.6113 38.6226 46.1747C39.3746 45.7382 40.1024 45.2817 40.7992 44.8119C41.4961 44.3421 42.1643 43.8568 42.8016 43.3626C42.9096 42.5604 42.9934 41.7361 43.0508 40.8962C43.1081 40.0542 43.1368 39.1966 43.1368 38.3212C43.1368 37.4481 43.1081 36.5883 43.0508 35.7463C42.9934 34.9042 42.9096 34.082 42.8016 33.2799C42.1643 32.7835 41.4961 32.3004 40.7992 31.8306C40.1024 31.3608 39.3768 30.9043 38.6226 30.4678C37.8684 30.0312 37.1142 29.6301 36.3601 29.2623C35.6059 28.8944 34.8561 28.5576 34.1085 28.2518C33.3631 28.5598 32.6111 28.8944 31.8569 29.2623C31.1028 29.6301 30.3486 30.0312 29.5944 30.4678C28.8424 30.9043 28.1147 31.3608 27.4178 31.8306C26.7209 32.3004 26.0527 32.7857 25.4154 33.2799C25.3074 34.082 25.2236 34.9064 25.1662 35.7463C25.1089 36.5883 25.0802 37.4459 25.0802 38.3212C25.0802 39.1943 25.1089 40.0542 25.1662 40.8962C25.2236 41.7383 25.3074 42.5604 25.4154 43.3626C26.0527 43.859 26.7209 44.3421 27.4178 44.8119C28.1147 45.2817 28.8402 45.7382 29.5944 46.1747C30.3486 46.6113 31.1028 47.0124 31.8569 47.3802C32.6111 47.7481 33.3609 48.0849 34.1085 48.3907ZM41.8533 24.8236C42.1422 24.797 42.4267 24.7771 42.7067 24.7638C42.9868 24.7505 43.2647 24.7438 43.5381 24.7438C44.2636 24.7438 44.9539 24.7926 45.6022 24.8857C46.2506 24.9787 46.8614 25.1183 47.4282 25.3023C46.244 24.0768 44.8921 23.0154 43.4146 22.1511C41.9371 21.2869 40.3295 20.6243 38.6292 20.1944C39.2467 20.7573 39.8267 21.4331 40.367 22.2065C40.9073 22.9865 41.4034 23.8619 41.8533 24.8236ZM41.0197 26.3105C40.2214 26.4191 39.3967 26.5787 38.5499 26.7848C37.703 26.9931 36.832 27.2479 35.9477 27.5537C36.51 27.8108 37.0723 28.0833 37.6325 28.3692C38.1926 28.6551 38.7505 28.9587 39.3018 29.28C39.862 29.6057 40.4067 29.9403 40.9359 30.2816C41.4652 30.6251 41.979 30.9752 42.4774 31.332C42.2988 30.4146 42.0849 29.5326 41.8423 28.6927C41.5975 27.8529 41.3219 27.0573 41.0197 26.3105ZM34.1085 19.636C32.8758 19.636 31.7004 20.1479 30.6286 21.0764C29.5569 22.0049 28.591 23.3478 27.7772 25.0075C28.7872 25.1649 29.8281 25.3931 30.8866 25.6878C31.9452 25.9826 33.0235 26.346 34.1063 26.7737C35.1891 26.3482 36.2674 25.9848 37.326 25.6878C38.3845 25.3931 39.4253 25.1627 40.4353 25.0075C39.6216 23.3478 38.6557 22.0049 37.584 21.0764C36.5166 20.1479 35.3412 19.636 34.1085 19.636ZM29.5811 20.201C27.8809 20.6309 26.2733 21.2935 24.7936 22.1578C23.3138 23.0198 21.9642 24.0813 20.7778 25.3067C21.3468 25.1228 21.9576 24.9832 22.6082 24.8879C23.2587 24.7926 23.9489 24.7438 24.6789 24.7438C24.9523 24.7438 25.2302 24.7505 25.5103 24.7638C25.7903 24.7771 26.0748 24.797 26.3637 24.8236C26.8114 23.8619 27.3075 22.9888 27.8478 22.2132C28.3881 21.4376 28.9637 20.7639 29.5811 20.201ZM25.7374 31.332C26.2358 30.9752 26.7496 30.6251 27.2789 30.2816C27.8081 29.9381 28.3528 29.6057 28.9129 29.28C29.4665 28.9587 30.0222 28.6573 30.5823 28.3692C31.1424 28.0833 31.7048 27.8108 32.2671 27.5537C31.3828 27.2501 30.5117 26.9931 29.6649 26.7848C28.8181 26.5765 27.9912 26.4191 27.1929 26.3105C26.8907 27.0573 26.6151 27.8529 26.3703 28.6927C26.1299 29.5304 25.9182 30.4124 25.7374 31.332ZM35.9477 49.0866C36.832 49.3901 37.7008 49.6472 38.5499 49.8555C39.3989 50.0638 40.2236 50.2211 41.0197 50.3297C41.3219 49.5829 41.5975 48.7874 41.8423 47.9475C42.0871 47.1077 42.2988 46.2257 42.4774 45.3083C41.979 45.6651 41.4652 46.0152 40.9359 46.3587C40.4067 46.7021 39.862 47.0345 39.3018 47.3603C38.7483 47.6816 38.1926 47.983 37.6325 48.2711C37.0723 48.5591 36.51 48.8295 35.9477 49.0866ZM38.6359 56.4392C40.3361 56.0093 41.9437 55.3467 43.4234 54.4847C44.9032 53.6227 46.2528 52.5612 47.4392 51.3358C46.8702 51.5197 46.2594 51.6593 45.6088 51.7546C44.9583 51.8499 44.2681 51.8986 43.5381 51.8986C43.2647 51.8986 42.9868 51.892 42.7067 51.8787C42.4267 51.8654 42.1422 51.8455 41.8533 51.8189C41.4057 52.7806 40.9073 53.6537 40.3692 54.4293C39.8311 55.2027 39.2511 55.8786 38.6359 56.4392ZM50.1671 47.7259C50.1891 47.6883 50.209 47.6506 50.231 47.6129C50.2509 47.5752 50.2729 47.5376 50.2928 47.4999C50.8485 46.434 50.961 45.1775 50.6853 43.8103C50.4097 42.4452 49.7459 40.9694 48.7469 39.4691C48.1184 40.2602 47.4105 41.0469 46.6277 41.8225C45.847 42.5981 44.9914 43.3582 44.0696 44.0983C43.8932 45.2684 43.6638 46.3919 43.3882 47.4578C43.1125 48.5237 42.7883 49.532 42.4223 50.4738C42.6097 50.4871 42.7994 50.4981 42.9846 50.5092C43.1698 50.5181 43.3551 50.5247 43.5337 50.5247C45.084 50.5247 46.4601 50.2943 47.5914 49.8289C48.7249 49.3658 49.607 48.6655 50.1671 47.7259ZM44.4974 38.3212C44.4974 38.9705 44.482 39.6132 44.4511 40.2447C44.4202 40.8763 44.3761 41.499 44.3166 42.1106C45.02 41.4945 45.675 40.8652 46.277 40.2314C46.8791 39.5977 47.4282 38.9594 47.9221 38.3212C47.4304 37.683 46.8791 37.0448 46.277 36.4111C45.675 35.7773 45.02 35.1502 44.3166 34.5319C44.3739 35.1435 44.4202 35.7662 44.4511 36.3978C44.4798 37.0293 44.4974 37.672 44.4974 38.3212ZM51.9886 43.4402C52.2202 42.6269 52.3988 41.7893 52.5201 40.9361C52.6414 40.0807 52.7031 39.2099 52.7031 38.3212C52.7031 37.4326 52.6392 36.5617 52.5179 35.7064C52.3966 34.851 52.218 34.0156 51.9864 33.2023C51.81 34.02 51.5167 34.8643 51.1175 35.7219C50.7184 36.5795 50.2112 37.4504 49.6047 38.3212C50.2112 39.1943 50.7184 40.0652 51.1175 40.9206C51.5189 41.7782 51.81 42.6225 51.9886 43.4402ZM2.08837 18.9357L7.16043 21.8786L12.2325 24.8214C14.6803 22.9201 17.6177 21.3002 21.1417 20.1434C24.6656 18.9867 28.7762 18.2931 33.5726 18.2443C33.6608 18.2421 33.749 18.2399 33.8395 18.2399C33.9277 18.2377 34.0181 18.2377 34.1063 18.2377C36.0337 18.2377 37.8971 18.5125 39.6613 19.0266C41.4255 19.5407 43.0905 20.2919 44.6165 21.2448C43.4676 19.9972 42.2701 18.8692 41.0219 17.8632C39.7738 16.8593 38.4771 15.9774 37.1319 15.2239C35.1119 14.0915 32.9772 13.2384 30.7455 12.6689C28.5138 12.0994 26.1851 11.8113 23.7725 11.8113C23.7439 11.8113 23.7152 11.8113 23.6865 11.8113C23.6579 11.8113 23.6292 11.8113 23.6005 11.8113C19.7347 11.8334 16.1975 12.5802 13.3241 13.4799C10.4506 14.3796 8.24541 15.4322 7.04355 16.066C7.00606 16.0859 6.90241 16.1391 6.88257 16.1502L4.48326 17.5418L2.08837 18.9357ZM1.39151 41.9555C2.08837 39.3783 3.13145 36.5285 4.68835 33.7253C6.24745 30.922 8.32259 28.1631 11.0836 25.7698L6.23643 22.96L1.39151 20.1479V31.0528V41.9555ZM20.8815 68.6095C17.4523 65.1392 13.8159 60.2042 12.1796 53.8709C10.5433 47.5376 10.9071 39.806 15.4786 30.7425C15.6506 30.9087 15.8403 31.055 16.0476 31.1769C16.2549 31.2988 16.4776 31.3918 16.7135 31.4561C16.826 31.4871 16.9385 31.5093 17.0509 31.5248C17.1634 31.5403 17.2759 31.5492 17.3906 31.5514C17.4038 32.4023 17.5934 33.3109 17.9441 34.2549C18.2947 35.1989 18.8063 36.1784 19.4657 37.1689C20.0942 36.3778 20.8021 35.5911 21.5849 34.8155C22.3656 34.0399 23.2212 33.2799 24.143 32.5397C24.3194 31.3697 24.5488 30.2462 24.8244 29.1803C25.1001 28.1144 25.4243 27.1061 25.7903 26.1643C25.6029 26.151 25.4132 26.1399 25.228 26.1288C25.0427 26.12 24.8575 26.1133 24.6789 26.1133C23.7284 26.1133 22.8419 26.202 22.0392 26.377C21.2365 26.5521 20.5176 26.8158 19.8957 27.1659C19.7193 26.8778 19.4966 26.6274 19.2407 26.4236C18.9827 26.2197 18.6916 26.0601 18.3719 25.9516C19.2209 24.8635 20.178 23.8663 21.2277 22.9733C22.2774 22.0824 23.4197 21.2957 24.637 20.6354C22.9897 21.0099 21.4195 21.4908 19.931 22.0736C18.4425 22.6564 17.0355 23.3455 15.7168 24.1389C13.7078 25.3466 11.8863 26.7958 10.2654 28.4778C8.64455 30.1597 7.22217 32.0743 6.01149 34.2084C4.09734 37.5855 2.97267 41.0381 2.3111 43.9875C1.65173 46.937 1.45546 49.3835 1.40033 50.7463C1.39812 50.7884 1.39151 51.2427 1.39151 51.2427C1.39151 53.1108 1.8921 54.9146 2.79404 56.4858C3.69599 58.0569 5.00149 59.3954 6.61132 60.3283L13.7453 64.4678L20.8815 68.6095ZM33.4116 64.1066C30.4963 62.9055 27.5766 61.1172 24.7693 58.5577C21.962 55.996 19.2672 52.661 16.7995 48.3641H16.8018L16.804 48.3619C15.9505 46.8839 15.2801 45.2883 14.8236 43.6042C14.3672 41.92 14.1224 40.1494 14.1224 38.3212C14.1224 38.2237 14.1224 38.124 14.1246 38.0265C14.1268 37.929 14.129 37.8315 14.1312 37.7318C13.6328 39.3517 13.2601 40.9561 13.0198 42.5405C12.7794 44.1249 12.6691 45.6916 12.6934 47.2362C12.7287 49.5874 13.0683 51.8986 13.7078 54.1501C14.3473 56.4016 15.2867 58.5954 16.5195 60.7161C18.4711 64.0689 20.8837 66.7746 23.0955 68.8244C25.3074 70.8742 27.3186 72.2681 28.4631 72.9971C28.4984 73.0193 28.5292 73.0392 28.5535 73.0548C28.5778 73.0703 28.5976 73.0836 28.6152 73.0947L31.0123 74.4863L33.4094 75.8779V69.9923V64.1066H33.4116ZM53.5984 64.9752C52.251 65.3342 50.7912 65.6467 49.2475 65.8705C47.7038 66.0943 46.0742 66.2273 44.3871 66.2273C42.8567 66.2273 41.28 66.1165 39.6767 65.8639C38.0735 65.6112 36.4416 65.2146 34.8032 64.6406V70.2604V75.8802L44.1997 70.4288L53.5984 64.9752ZM66.8233 34.6848C65.5487 39.4049 63.1141 45.0379 58.472 49.6295C53.8322 54.221 46.9849 57.771 36.8849 58.3228C36.9709 57.9727 36.9908 57.6159 36.9466 57.268C36.9025 56.9201 36.7945 56.581 36.6225 56.2642C37.3502 55.8276 38.0405 55.2049 38.68 54.4249C39.3195 53.6449 39.9083 52.7075 40.4353 51.6349C39.4253 51.4776 38.3845 51.2494 37.326 50.9546C36.2674 50.6599 35.1891 50.2965 34.1063 49.8688C33.0235 50.2943 31.9452 50.6577 30.8866 50.9546C29.8281 51.2494 28.7872 51.4798 27.7772 51.6349C28.3043 52.7075 28.8931 53.6471 29.5326 54.4271C30.1721 55.2071 30.8646 55.8276 31.5923 56.2664C31.4335 56.5611 31.3299 56.8802 31.2836 57.2082C31.2351 57.5361 31.2439 57.8752 31.3123 58.2076C29.9141 58.0104 28.5601 57.6669 27.27 57.1927C25.98 56.7184 24.7494 56.1157 23.5983 55.3955C24.7472 56.6431 25.9447 57.771 27.1929 58.7771C28.441 59.7809 29.7377 60.6629 31.0829 61.4164C33.1272 62.562 35.2883 63.4218 37.5509 63.9913C39.8113 64.5608 42.1731 64.8401 44.6143 64.8268C48.4801 64.8046 52.0173 64.0578 54.8907 63.1581C57.7641 62.2584 59.9694 61.2058 61.1713 60.5721C61.2087 60.5521 61.6035 60.3305 61.6035 60.3305C63.2133 59.3954 64.5188 58.0591 65.4208 56.488C66.3227 54.9168 66.8233 53.113 66.8233 51.2449V42.966V34.6848ZM66.8233 20.1479L61.7512 23.0907L56.6792 26.0335C57.1026 29.1714 57.021 32.6062 56.2161 36.3291C55.4112 40.0519 53.8851 44.0651 51.4175 48.3619L51.4153 48.3597L51.413 48.3575C50.4846 49.9663 49.3423 51.4333 48.0236 52.7208C46.7048 54.0083 45.2097 55.1141 43.58 56.0005C45.2273 55.626 46.7975 55.1451 48.286 54.5623C49.7746 53.9795 51.1815 53.2903 52.5002 52.497C54.5092 51.2915 56.3307 49.84 57.9516 48.1581C59.5725 46.4761 60.9948 44.5615 62.2055 42.4275C64.1197 39.0525 65.2443 35.6 65.9037 32.6505C66.5631 29.701 66.7593 27.2546 66.8167 25.8917C66.8189 25.8496 66.8233 25.73 66.8255 25.71V22.9267V20.1479H66.8233Z" fill="black"/>
<path d="M90.7214 23.2879H92.8495L93.037 24.4092H93.1009C93.8419 23.6935 94.7284 23.0752 95.9302 23.0752C97.8444 23.0752 98.6603 24.4336 98.6603 26.6452V32.1386H96.0515V26.982C96.0515 25.7078 95.7119 25.3111 94.9577 25.3111C94.3028 25.3111 93.9014 25.6169 93.328 26.1709V32.1408H90.7192V23.2879H90.7214Z" fill="black"/>
<path d="M100.872 23.2879H103L103.188 24.4092H103.252C103.993 23.6935 104.879 23.0752 106.081 23.0752C107.995 23.0752 108.811 24.4336 108.811 26.6452V32.1386H106.202V26.982C106.202 25.7078 105.863 25.3111 105.109 25.3111C104.454 25.3111 104.052 25.6169 103.479 26.1709V32.1408H100.87V23.2879H100.872Z" fill="black"/>
<path d="M110.511 27.7155C110.511 24.7749 112.573 23.0752 114.801 23.0752C117.028 23.0752 119.09 24.7749 119.09 27.7155C119.09 30.6517 117.028 32.3514 114.801 32.3514C112.573 32.3491 110.511 30.6517 110.511 27.7155ZM116.417 27.7155C116.417 26.1842 115.881 25.1893 114.803 25.1893C113.725 25.1893 113.189 26.1842 113.189 27.7155C113.189 29.2467 113.725 30.2351 114.803 30.2351C115.881 30.2351 116.417 29.2467 116.417 27.7155Z" fill="black"/>
<path d="M119.795 23.2878H122.417L123.564 27.465C123.789 28.3447 124.021 29.2577 124.248 30.184H124.318C124.543 29.2577 124.775 28.3447 125.002 27.465L126.149 23.2878H128.647L125.774 32.1363H122.766L119.795 23.2878Z" fill="black"/>
<path d="M129.254 29.6833C129.254 27.8196 130.729 26.8091 134.211 26.4413C134.158 25.6679 133.775 25.1627 132.82 25.1627C132.081 25.1627 131.344 25.4751 130.489 25.9626L129.56 24.2408C130.678 23.5539 131.938 23.0752 133.32 23.0752C135.572 23.0752 136.818 24.3671 136.818 27.0795V32.1386H134.69L134.502 31.2323H134.438C133.697 31.886 132.866 32.3536 131.876 32.3536C130.273 32.3491 129.254 31.1724 129.254 29.6833ZM134.211 29.5658V28.0213C132.357 28.2739 131.75 28.8058 131.75 29.475C131.75 30.0445 132.141 30.3237 132.76 30.3237C133.353 30.3215 133.748 30.029 134.211 29.5658Z" fill="black"/>
<path d="M138.233 31.1148L139.407 29.4816C140.205 30.0888 140.941 30.4101 141.678 30.4101C142.454 30.4101 142.789 30.1132 142.789 29.6501C142.789 29.0673 141.916 28.8035 141.01 28.4468C139.931 28.0279 138.679 27.3077 138.679 25.8452C138.679 24.1987 140.011 23.0752 142.042 23.0752C143.391 23.0752 144.395 23.6225 145.145 24.1965L143.978 25.7698C143.352 25.3134 142.734 25.0142 142.123 25.0142C141.449 25.0142 141.118 25.2801 141.118 25.7211C141.118 26.2862 141.943 26.5011 142.856 26.8357C143.971 27.2501 145.226 27.8817 145.226 29.4994C145.226 31.0993 143.969 32.3536 141.61 32.3536C140.452 32.3491 139.124 31.8439 138.233 31.1148Z" fill="black"/>
<path d="M151.505 35.416L151.968 33.4172C152.131 33.4593 152.371 33.5302 152.561 33.5302C153.421 33.5302 153.873 33.0537 154.102 32.369L154.235 31.9081L150.839 23.2878H153.461L154.72 27.0949C154.973 27.8971 155.183 28.7348 155.415 29.6012H155.485C155.681 28.7636 155.878 27.9259 156.096 27.0949L157.163 23.2878H159.662L156.605 32.2316C155.77 34.4476 154.83 35.5955 152.762 35.5955C152.212 35.5955 151.864 35.5246 151.505 35.416Z" fill="black"/>
<path d="M160.257 29.6833C160.257 27.8196 161.733 26.8091 165.215 26.4413C165.162 25.6679 164.778 25.1627 163.823 25.1627C163.084 25.1627 162.348 25.4751 161.492 25.9626L160.564 24.2408C161.682 23.5539 162.941 23.0752 164.324 23.0752C166.575 23.0752 167.821 24.3671 167.821 27.0795V32.1386H165.693L165.506 31.2323H165.442C164.701 31.886 163.87 32.3536 162.879 32.3536C161.276 32.3491 160.257 31.1724 160.257 29.6833ZM165.217 29.5658V28.0213C163.362 28.2739 162.756 28.8058 162.756 29.475C162.756 30.0445 163.146 30.3237 163.766 30.3237C164.357 30.3215 164.754 30.029 165.217 29.5658Z" fill="black"/>
<path d="M172.628 23.2878H175.25L176.397 27.465C176.622 28.3447 176.854 29.2577 177.081 30.184H177.151C177.376 29.2577 177.608 28.3447 177.835 27.465L178.982 23.2878H181.48L178.607 32.1363H175.599L172.628 23.2878Z" fill="black"/>
<path d="M182.343 28.0723C182.343 27.6003 182.4 27.1216 182.451 26.9067H187.719C187.514 25.6546 186.795 25.0718 185.697 25.0718C185.018 25.0718 184.387 25.2823 183.767 25.6635L182.905 23.966C183.858 23.3256 185.04 23.0752 186.142 23.0752C188.465 23.0752 190.246 24.828 190.246 27.7088C190.246 30.5786 188.323 32.3491 186.125 32.3491C183.624 32.3491 182.343 30.5187 182.343 28.0723ZM187.748 28.6418H184.572C184.572 29.6523 185.018 30.3525 186.067 30.3525C186.923 30.3525 187.574 29.8362 187.748 28.6418Z" fill="black"/>
<path d="M204.852 32.1364L202.234 27.4873C203.469 26.9266 204.294 25.8408 204.294 24.1323C204.294 21.3689 202.283 20.5135 199.831 20.5135H195.665V32.1364H198.28V27.9526H199.718L201.925 32.1364H204.852ZM198.28 22.5988H199.619C200.995 22.5988 201.734 22.9822 201.734 24.1323C201.734 25.2757 200.995 25.8674 199.619 25.8674H198.28V22.5988Z" fill="black"/>
<path d="M205.822 28.0723C205.822 27.6003 205.879 27.1216 205.93 26.9067H211.198C210.993 25.6546 210.274 25.0718 209.176 25.0718C208.497 25.0718 207.866 25.2823 207.247 25.6635L206.384 23.966C207.337 23.3256 208.519 23.0752 209.622 23.0752C211.944 23.0752 213.726 24.828 213.726 27.7088C213.726 30.5786 211.803 32.3491 209.604 32.3491C207.103 32.3491 205.822 30.5187 205.822 28.0723ZM211.227 28.6418H208.052C208.052 29.6523 208.497 30.3525 209.547 30.3525C210.402 30.3525 211.053 29.8362 211.227 28.6418Z" fill="black"/>
<path d="M220.782 32.7213L220.877 31.3696C220.301 31.9413 219.459 32.349 218.667 32.349C216.48 32.349 215.066 30.6028 215.066 27.7132C215.066 24.8191 216.863 23.0729 218.718 23.0729C219.675 23.0729 220.37 23.4075 221.069 24.1587H221.133L221.351 23.2856H223.391V35.416H220.782V32.7213ZM220.782 29.4128V25.7808C220.321 25.3664 219.803 25.2202 219.324 25.2202C218.48 25.2202 217.739 26.0046 217.739 27.6866C217.739 29.4239 218.337 30.2062 219.347 30.2062C219.902 30.204 220.35 29.9934 220.782 29.4128Z" fill="black"/>
<path d="M225.184 28.0723C225.184 27.6003 225.242 27.1216 225.292 26.9067H230.561C230.356 25.6546 229.637 25.0718 228.538 25.0718C227.859 25.0718 227.229 25.2823 226.609 25.6635L225.747 23.966C226.699 23.3256 227.881 23.0752 228.984 23.0752C231.306 23.0752 233.088 24.828 233.088 27.7088C233.088 30.5786 231.165 32.3491 228.966 32.3491C226.466 32.3491 225.184 30.5187 225.184 28.0723ZM230.592 28.6418H227.416C227.416 29.6523 227.861 30.3525 228.911 30.3525C229.765 30.3525 230.415 29.8362 230.592 28.6418Z" fill="black"/>
<path d="M234.88 23.2878H237.008L237.196 24.4224H237.26C237.983 23.6934 238.77 23.0729 239.928 23.0729C241.165 23.0729 241.913 23.6091 242.358 24.562C243.132 23.751 243.959 23.0729 245.124 23.0729C247.027 23.0729 247.878 24.4313 247.878 26.6428V32.1363H245.269V26.9797C245.269 25.7055 244.923 25.3088 244.182 25.3088C243.739 25.3088 243.238 25.5858 242.683 26.1686V32.1385H240.074V26.9819C240.074 25.7077 239.728 25.311 238.987 25.311C238.55 25.311 238.043 25.588 237.487 26.1708V32.1407H234.878V23.2878H234.88Z" fill="black"/>
<path d="M249.312 31.1148L250.485 29.4816C251.283 30.0888 252.02 30.4101 252.756 30.4101C253.532 30.4101 253.868 30.1132 253.868 29.6501C253.868 29.0673 252.994 28.8035 252.088 28.4468C251.01 28.0279 249.757 27.3077 249.757 25.8452C249.757 24.1987 251.089 23.0752 253.12 23.0752C254.47 23.0752 255.473 23.6225 256.223 24.1965L255.056 25.7698C254.43 25.3134 253.812 25.0142 253.202 25.0142C252.527 25.0142 252.196 25.2801 252.196 25.7211C252.196 26.2862 253.021 26.5011 253.934 26.8357C255.047 27.2501 256.304 27.8817 256.304 29.4994C256.304 31.0993 255.047 32.3536 252.688 32.3536C251.53 32.3491 250.202 31.8439 249.312 31.1148Z" fill="black"/>
<path d="M257.548 29.6833C257.548 27.8196 259.023 26.8091 262.505 26.4413C262.453 25.6679 262.069 25.1627 261.114 25.1627C260.375 25.1627 259.639 25.4751 258.783 25.9626L257.855 24.2408C258.973 23.5539 260.232 23.0752 261.615 23.0752C263.866 23.0752 265.112 24.3671 265.112 27.0795V32.1386H262.984L262.797 31.2323H262.733C261.992 31.886 261.16 32.3536 260.17 32.3536C258.567 32.3491 257.548 31.1724 257.548 29.6833ZM262.505 29.5658V28.0213C260.651 28.2739 260.044 28.8058 260.044 29.475C260.044 30.0445 260.435 30.3237 261.054 30.3237C261.645 30.3215 262.042 30.029 262.505 29.5658Z" fill="black"/>
<path d="M267.304 29.3863V19.6426H269.913V29.4927C269.913 30.0555 270.171 30.2328 270.385 30.2328C270.484 30.2328 270.557 30.2328 270.705 30.1974L271.016 32.1297C270.727 32.2538 270.299 32.3491 269.706 32.3491C267.917 32.3491 267.304 31.1768 267.304 29.3863Z" fill="black"/>
<path d="M90.7258 44.6876H92.8539L93.0413 45.8089H93.1053C93.8463 45.0931 94.7328 44.4749 95.9346 44.4749C97.8488 44.4749 98.6647 45.8333 98.6647 48.0448V53.5383H96.0559V48.3817C96.0559 47.1075 95.7163 46.7108 94.9621 46.7108C94.3072 46.7108 93.9058 47.0166 93.3324 47.5706V53.5405H90.7236V44.6876H90.7258Z" fill="black"/>
<path d="M100.877 41.0425H103.428V48.2001H103.492L106.284 44.6878H109.116L106.033 48.3353L109.349 53.5363H106.522L104.542 50.086L103.426 51.3579V53.5363H100.875V41.0425H100.877Z" fill="black"/>
<path d="M121.718 50.8969C121.718 49.2793 120.461 48.6477 119.348 48.2333C118.435 47.8987 117.61 47.6838 117.61 47.1187C117.61 46.6777 117.941 46.4118 118.616 46.4118C119.224 46.4118 119.844 46.7087 120.47 47.1674L121.637 45.5941C120.887 45.0223 119.884 44.4728 118.534 44.4728C116.503 44.4728 115.171 45.5963 115.171 47.2428C115.171 48.7053 116.421 49.4255 117.502 49.8443C118.408 50.2011 119.282 50.4648 119.282 51.0476C119.282 51.5108 118.946 51.8077 118.17 51.8077C117.434 51.8077 116.697 51.4842 115.899 50.8792L114.726 52.5124C115.524 53.1661 116.675 53.6404 117.74 53.7312L117.012 55.2093C118.089 55.3511 118.366 55.6015 118.366 55.9605C118.366 56.4657 117.934 56.6696 116.547 56.7472L116.741 57.7976C118.953 57.72 120.243 57.1682 120.243 55.9539C120.243 55.2115 119.776 54.8303 118.885 54.6243L119.321 53.6204C120.891 53.2658 121.718 52.1955 121.718 50.8969Z" fill="black"/>
<path d="M122.958 51.083C122.958 49.2193 124.433 48.2088 127.915 47.841C127.862 47.0676 127.479 46.5623 126.524 46.5623C125.785 46.5623 125.049 46.8748 124.193 47.3623L123.265 45.6405C124.383 44.9535 125.642 44.4749 127.024 44.4749C129.276 44.4749 130.522 45.7668 130.522 48.4792V53.5383H128.394L128.206 52.6319H128.143C127.402 53.2857 126.57 53.7532 125.58 53.7532C123.977 53.751 122.958 52.5721 122.958 51.083ZM127.915 50.9655V49.421C126.061 49.6736 125.454 50.2054 125.454 50.8746C125.454 51.4442 125.845 51.7234 126.464 51.7234C127.058 51.7234 127.452 51.4286 127.915 50.9655Z" fill="black"/>
<path d="M136.78 42.8862C137.071 42.8862 137.395 42.9571 137.693 43.0767L138.163 41.1444C137.773 40.9959 137.142 40.8297 136.408 40.8297C134.03 40.8297 133.168 42.3632 133.168 44.2313V44.7011L131.997 44.7897V46.7464H133.168V53.5362H135.777V46.7464H137.362V44.69H135.777V44.1559C135.775 43.2385 136.143 42.8862 136.78 42.8862Z" fill="black"/>
<path d="M152.751 53.5361H155.518L151.886 41.9132H148.757L145.123 53.5361H147.796L148.51 50.7683H152.036L152.751 53.5361ZM149.039 48.7252L149.317 47.6504C149.639 46.4892 149.948 45.1286 150.228 43.901H150.299C150.607 45.1131 150.916 46.487 151.238 47.6504L151.514 48.7252H149.039Z" fill="black"/>
<path d="M165.609 49.1151C165.609 46.2454 167.647 44.4749 169.762 44.4749C172.269 44.4749 173.513 46.3075 173.513 48.7207C173.513 49.1927 173.456 49.6647 173.405 49.8797H168.137C168.37 51.1627 169.246 51.7522 170.421 51.7522C171.087 51.7522 171.687 51.5483 172.324 51.1738L173.187 52.7538C172.285 53.3809 171.107 53.751 170.062 53.751C167.552 53.751 165.609 52.0447 165.609 49.1151ZM171.283 48.1468C171.283 47.1739 170.862 46.4737 169.821 46.4737C168.997 46.4737 168.287 47.0299 168.108 48.1468H171.283Z" fill="black"/>
<path d="M175.315 44.6876H177.443L177.63 45.8089H177.694C178.435 45.0931 179.322 44.4749 180.523 44.4749C182.438 44.4749 183.254 45.8333 183.254 48.0448V53.5383H180.645V48.3817C180.645 47.1075 180.305 46.7108 179.551 46.7108C178.896 46.7108 178.495 47.0166 177.921 47.5706V53.5405H175.312V44.6876H175.315Z" fill="black"/>
<path d="M185.818 50.3208V46.7464H184.616V44.7896L185.966 44.6877L186.27 42.3387H188.427V44.6877H190.538V46.7441H188.427V50.2875C188.427 51.2914 188.879 51.6925 189.567 51.6925C189.858 51.6925 190.174 51.6083 190.405 51.524L190.818 53.4276C190.35 53.5761 189.715 53.7489 188.862 53.7489C186.683 53.7511 185.818 52.3706 185.818 50.3208Z" fill="black"/>
<path d="M192.262 50.7862V41.0425H194.871V50.8948C194.871 51.4577 195.129 51.6349 195.343 51.6349C195.442 51.6349 195.515 51.6349 195.662 51.5995L195.973 53.5318C195.685 53.6559 195.257 53.7512 194.663 53.7512C192.873 53.7512 192.262 52.5767 192.262 50.7862Z" fill="black"/>
<path d="M201.969 56.8181L202.433 54.8193C202.596 54.8614 202.836 54.9323 203.026 54.9323C203.886 54.9323 204.338 54.4558 204.567 53.7711L204.7 53.3102L201.303 44.6899H203.926L205.185 48.497C205.438 49.2992 205.648 50.1369 205.879 51.0033H205.95C206.146 50.1657 206.342 49.328 206.561 48.497L207.63 44.6899H210.129L207.072 53.6337C206.237 55.8497 205.297 56.9976 203.229 56.9976C202.677 56.9954 202.329 56.9245 201.969 56.8181Z" fill="black"/>
<path d="M164.644 52.0227C164.644 54.8015 162.745 56.1356 159.871 56.1356C158.498 56.1356 157.476 55.8098 156.72 55.4375L157.415 53.6825C158.048 54.0237 158.835 54.3184 159.81 54.3184C161.137 54.3184 162.081 53.729 162.081 52.1135V51.6327H162.05C161.508 52.3772 160.674 52.8581 159.578 52.8581C157.507 52.8581 156.149 51.1651 156.149 48.8228C156.149 46.496 157.538 44.6168 159.668 44.6168C160.782 44.6168 161.677 45.1287 162.295 45.9996H162.326L162.388 44.7875H164.641V52.0227H164.644ZM162.171 48.7474C162.171 47.4134 161.554 46.4805 160.456 46.4805C159.329 46.4805 158.742 47.4888 158.742 48.7785C158.742 50.0349 159.298 51.0454 160.443 51.0454C161.556 51.0432 162.171 50.0815 162.171 48.7474Z" fill="black"/>
<path d="M85.5965 20.5134H88.2119V32.1363H85.5965V20.5134ZM85.592 17.473H88.2163V19.6469H85.592V17.473Z" fill="black"/>
<path d="M85.6008 41.9134H88.2163V53.5363H85.6008V41.9134ZM85.5964 38.8752H88.2207V41.0491H85.5964V38.8752Z" fill="black"/>
<path d="M146.874 23.2878H149.483V32.1363H146.874V23.2878ZM146.867 19.5383H149.491V21.7122H146.867V19.5383Z" fill="black"/>
<path d="M110.602 44.6877H113.211V53.5362H110.602V44.6877ZM110.597 40.9382H113.222V43.1121H110.597V40.9382Z" fill="black"/>
<path d="M197.338 44.6877H199.947V53.5362H197.338V44.6877ZM197.332 40.9382H199.956V43.1121H197.332V40.9382Z" fill="black"/>
<path d="M211.483 44.6877H214.092V53.5362H211.483V44.6877ZM211.476 40.9382H214.101V43.1121H211.476V40.9382Z" fill="black"/>
</svg>
