<svg width="222" height="203" viewBox="0 0 222 203" fill="none" xmlns="http://www.w3.org/2000/svg">
<mask id="mask0_84_3188" style="mask-type:alpha" maskUnits="userSpaceOnUse" x="0" y="0" width="222" height="203">
<path d="M9.1005 108.184C-3.08799 104.004 -2.1688 86.4689 10.3898 83.5861L52.6462 73.8863C59.383 72.3399 63.6773 65.7267 62.3499 58.9433L54.0239 16.3951C51.5494 3.74973 67.1954 -4.22214 75.9712 5.21256L105.5 36.9576C110.207 42.0187 118.081 42.4314 123.292 37.8902L155.977 9.40536C165.691 0.939673 180.418 10.5033 176.635 22.8208L163.907 64.2657C161.878 70.8731 165.458 77.8988 171.996 80.1409L213.007 94.2046C225.196 98.3843 224.277 115.92 211.718 118.803L169.462 128.503C162.725 130.049 158.431 136.662 159.758 143.445L168.084 185.994C170.558 198.639 154.913 206.611 146.137 197.176L116.608 165.431C111.9 160.37 104.026 159.958 98.8156 164.499L66.1305 192.983C56.4165 201.449 41.6898 191.885 45.4725 179.568L58.2004 138.123C60.2296 131.516 56.6498 124.49 50.1116 122.248L9.1005 108.184Z" stroke="white" stroke-opacity="0.1" stroke-width="0.274366"/>
<path d="M10.6213 103.022C-1.33176 98.2103 0.503745 80.7469 13.196 78.5253L54.698 71.2611C61.5066 70.0694 66.1412 63.6903 65.1706 56.8467L59.2547 15.131C57.4454 2.37343 73.4868 -4.76861 81.7569 5.11246L108.799 37.422C113.235 42.7225 121.077 43.5469 126.519 39.2846L159.687 13.3032C169.831 5.35747 184.037 15.6788 179.615 27.7815L165.155 67.3555C162.783 73.8477 165.99 81.051 172.402 83.6322L211.487 99.3665C223.44 104.178 221.604 121.642 208.912 123.864L167.41 131.128C160.601 132.32 155.967 138.698 156.937 145.542L162.854 187.258C164.663 200.015 148.621 207.158 140.351 197.277L113.309 164.967C108.873 159.666 101.031 158.842 95.5895 163.104L62.4205 189.086C52.2768 197.031 38.0709 186.71 42.4931 174.607L56.9529 135.033C59.3251 128.541 56.1181 121.338 49.7062 118.756L10.6213 103.022Z" stroke="white" stroke-opacity="0.1" stroke-width="0.274366"/>
<path d="M12.398 98.0385C0.713186 92.6076 3.45992 75.2638 16.2511 73.7095L56.8631 68.7748C63.7247 67.941 68.6869 61.8133 68.0759 54.9284L64.4592 14.1779C63.3201 1.34307 79.7136 -4.95005 87.4552 5.3503L112.035 38.0542C116.188 43.5796 123.975 44.8129 129.632 40.8412L163.115 17.3337C173.661 9.92981 187.308 20.9805 182.258 32.8351L166.226 70.4738C163.517 76.8329 166.342 84.1939 172.61 87.1072L209.71 104.351C221.395 109.781 218.648 127.125 205.857 128.679L165.245 133.614C158.383 134.448 153.421 140.575 154.032 147.46L157.649 188.211C158.788 201.046 142.394 207.339 134.653 197.038L110.073 164.335C105.92 158.809 98.1325 157.576 92.4755 161.547L58.9927 185.055C48.447 192.459 34.8006 181.408 39.8502 169.554L55.8823 131.915C58.591 125.556 55.7655 118.195 49.4974 115.281L12.398 98.0385Z" stroke="white" stroke-opacity="0.1" stroke-width="0.274366"/>
<path d="M14.4161 93.2447C3.03155 87.2097 6.68262 70.0334 19.5376 69.1507L59.1326 66.4318C66.0284 65.9583 71.3045 60.0989 71.0546 53.1914L69.6197 13.5286C69.1539 0.65176 85.8544 -4.77453 93.0463 5.91687L115.198 38.848C119.056 44.5831 126.769 46.2228 132.626 42.5527L166.258 21.4786C177.176 14.6367 190.226 26.3864 184.563 37.9605L167.12 73.6105C164.082 79.8191 166.518 87.3183 172.625 90.5556L207.692 109.144C219.076 115.179 215.425 132.355 202.57 133.238L162.975 135.957C156.079 136.43 150.803 142.29 151.053 149.198L152.488 188.86C152.954 201.737 136.253 207.163 129.062 196.472L106.909 163.541C103.051 157.806 95.3386 156.166 89.4815 159.836L55.8503 180.91C44.9316 187.752 31.8822 176.002 37.5452 164.428L54.9881 128.778C58.0259 122.57 55.5895 115.07 49.4825 111.833L14.4161 93.2447Z" stroke="white" stroke-opacity="0.1" stroke-width="0.274366"/>
<path d="M16.6615 88.6525C5.60832 82.03 10.1528 65.0683 23.0364 64.8596L61.4975 64.2366C68.4087 64.1246 73.9842 58.5491 74.0962 51.6379L74.7192 13.1768C74.9279 0.293228 91.8896 -4.25164 98.5121 6.8015L118.282 39.7986C121.835 45.7279 129.451 47.7686 135.492 44.41L169.112 25.719C180.374 19.4579 192.791 31.8744 186.53 43.1363L167.839 76.756C164.48 82.7972 166.521 90.4138 172.45 93.9664L205.447 113.737C216.5 120.359 211.955 137.32 199.071 137.529L160.61 138.152C153.699 138.264 148.124 143.84 148.012 150.751L147.389 189.212C147.18 202.095 130.219 206.64 123.596 195.587L103.826 162.59C100.273 156.661 92.6572 154.62 86.616 157.979L52.9959 176.67C41.734 182.931 29.3175 170.514 35.5786 159.252L54.2696 125.633C57.6282 119.591 55.5875 111.975 49.6582 108.423L16.6615 88.6525Z" stroke="white" stroke-opacity="0.1" stroke-width="0.274366"/>
<path d="M19.1173 84.2723C8.42589 77.0804 13.8522 60.3798 26.729 60.8457L63.9487 62.1922C70.8563 62.4421 76.7157 57.1663 77.1892 50.2705L79.7405 13.114C80.6232 0.258975 97.7995 -3.39209 103.834 7.9925L121.278 40.8991C124.515 47.0061 132.014 49.4425 138.223 46.4047L171.677 30.036C183.251 24.373 195.001 37.4224 188.159 48.3411L168.384 79.9013C164.713 85.7584 166.353 93.4709 172.088 97.3288L202.991 118.117C213.682 125.309 208.256 142.009 195.379 141.543L158.159 140.196C151.252 139.947 145.392 145.223 144.919 152.119L142.367 189.275C141.485 202.13 124.308 205.781 118.273 194.396L100.83 161.49C97.5925 155.383 90.0934 152.946 83.8847 155.984L50.4307 172.353C38.8566 178.016 27.1066 164.966 33.9485 154.048L53.7243 122.488C57.3945 116.631 55.7551 108.918 50.02 105.06L19.1173 84.2723Z" stroke="white" stroke-opacity="0.1" stroke-width="0.274366"/>
<path d="M21.7687 80.1132C11.4684 72.3716 17.7611 55.9781 30.5959 57.1172L66.4766 60.3019C73.3616 60.9129 79.4893 55.9507 80.3231 49.0891L84.6682 13.3305C86.2224 0.539333 103.566 -2.20776 108.997 9.47707L124.179 42.143C127.093 48.4111 134.454 51.2369 140.813 48.5282L173.953 34.4116C185.808 29.3621 196.859 43.0088 189.455 53.5545L168.757 83.0355C164.785 88.6925 166.019 96.4806 171.544 100.633L200.339 122.276C210.64 130.017 204.347 146.411 191.512 145.272L155.631 142.087C148.746 141.476 142.619 146.438 141.785 153.3L137.44 189.059C135.885 201.85 118.542 204.597 113.111 192.912L97.9285 160.246C95.0152 153.978 87.6542 151.152 81.295 153.861L48.1545 167.977C36.2999 173.027 25.2492 159.38 32.6531 148.834L53.3512 119.353C57.3229 113.696 56.0896 105.908 50.5642 101.756L21.7687 80.1132Z" stroke="white" stroke-opacity="0.1" stroke-width="0.274366"/>
<path d="M24.5987 76.1834C14.7176 67.9134 21.86 51.872 34.6176 53.6813L69.072 58.5677C75.9155 59.5383 82.2947 54.9033 83.4864 48.0948L89.4864 13.8165C91.708 1.12419 109.171 -0.711315 113.983 11.2417L126.979 43.5236C129.56 49.9355 136.764 53.1429 143.256 50.7707L175.942 38.8274C188.044 34.4052 198.366 48.6114 190.42 58.7552L168.961 86.1505C164.698 91.5919 165.523 99.4336 170.823 103.87L197.509 126.205C207.39 134.475 200.248 150.517 187.49 148.708L153.036 143.821C146.192 142.851 139.813 147.485 138.621 154.294L132.621 188.572C130.4 201.264 112.936 203.1 108.125 191.147L95.129 158.865C92.5478 152.453 85.3445 149.246 78.8523 151.618L46.1662 163.561C34.0636 167.984 23.7422 153.778 31.6879 143.634L53.1471 116.238C57.4094 110.797 56.5853 102.955 51.2848 98.5188L24.5987 76.1834Z" stroke="white" stroke-opacity="0.1" stroke-width="0.274366"/>
<path d="M27.5909 72.4908C18.1562 63.7149 26.1284 48.069 38.7739 50.5435L71.7259 56.9919C78.5093 58.3193 85.1221 54.0247 86.6685 47.2879L94.1809 14.562C97.0636 2.00333 114.6 1.08413 118.779 13.2726L129.671 45.0344C131.913 51.5727 138.938 55.1524 145.546 53.1232L177.644 43.2658C189.961 39.4831 199.525 54.2098 191.059 63.9238L168.999 89.2372C164.458 94.448 164.87 102.322 169.931 107.03L194.517 129.899C203.952 138.674 195.979 154.32 183.334 151.846L150.382 145.398C143.599 144.07 136.986 148.365 135.439 155.101L127.927 187.828C125.044 200.386 107.509 201.305 103.329 189.117L92.4371 157.355C90.195 150.817 83.1694 147.237 76.5619 149.267L44.4644 159.124C32.1469 162.907 22.5828 148.18 31.0485 138.466L53.1091 113.152C57.6503 107.941 57.2376 100.067 52.1765 95.3597L27.5909 72.4908Z" stroke="white" stroke-opacity="0.1" stroke-width="0.274366"/>
<path d="M30.7287 69.04C21.7662 59.7823 30.5462 44.5749 43.0447 47.7078L74.4288 55.5748C81.1334 57.2554 87.962 53.3129 89.8588 46.6663L98.7379 15.5535C102.274 3.16291 119.834 3.16291 123.37 15.5535L132.249 46.6663C134.146 53.3129 140.974 57.2554 147.679 55.5748L179.063 47.7078C191.562 44.5749 200.342 59.7823 191.379 69.04L168.874 92.2858C164.066 97.2519 164.066 105.137 168.874 110.103L191.379 133.349C200.342 142.606 191.562 157.814 179.063 154.681L147.679 146.814C140.974 145.133 134.146 149.076 132.249 155.723L123.37 186.835C119.834 199.226 102.274 199.226 98.7379 186.835L89.8588 155.723C87.962 149.076 81.1334 145.133 74.4288 146.814L43.0447 154.681C30.5462 157.814 21.7662 142.606 30.7287 133.349L53.2333 110.103C58.0411 105.137 58.0411 97.2519 53.2333 92.2858L30.7287 69.04Z" stroke="white" stroke-opacity="0.1" stroke-width="0.274366"/>
<path d="M33.9946 65.8365C25.5289 56.1225 35.0926 41.3958 47.4101 45.1785L77.1711 54.3181C83.7786 56.3473 90.8042 52.7676 93.0463 46.2293L103.145 16.7803C107.325 4.5918 124.86 5.51064 127.743 18.0693L134.708 48.4128C136.255 55.1497 142.868 59.4439 149.651 58.1165L180.204 52.1378C192.85 49.6633 200.822 65.3092 191.387 74.0851L168.592 95.2891C163.531 99.9967 163.118 107.871 167.659 113.082L188.113 136.552C196.579 146.266 187.015 160.993 174.698 157.21L144.937 148.071C138.329 146.041 131.304 149.621 129.062 156.159L118.963 185.609C114.783 197.797 97.2475 196.878 94.3647 184.319L87.3995 153.976C85.853 147.239 79.2402 142.945 72.4568 144.272L41.9035 150.251C29.258 152.725 21.2862 137.079 30.7209 128.304L53.5166 107.1C58.5777 102.392 58.9901 94.518 54.4488 89.3071L33.9946 65.8365Z" stroke="white" stroke-opacity="0.1" stroke-width="0.274366"/>
<path d="M37.3716 62.8848C29.4259 52.741 39.7473 38.5348 51.8499 42.957L79.9436 53.2223C86.4358 55.5945 93.639 52.3871 96.2203 45.9751L107.39 18.2287C112.202 6.27562 129.666 8.11112 131.887 20.8034L137.044 50.2659C138.236 57.0744 144.615 61.7094 151.458 60.7388L181.072 56.5386C193.83 54.7293 200.972 70.771 191.091 79.0411L168.154 98.2383C162.854 102.675 162.03 110.517 166.292 115.958L184.736 139.505C192.682 149.648 182.361 163.855 170.258 159.432L142.164 149.167C135.672 146.795 128.469 150.002 125.888 156.414L114.718 184.16C109.906 196.113 92.4421 194.278 90.2206 181.586L85.0636 152.123C83.8719 145.315 77.4927 140.68 70.6492 141.651L41.0351 145.85C28.2776 147.66 21.1355 131.618 31.0166 123.348L53.9533 104.151C59.2538 99.7144 60.0782 91.8727 55.8159 86.4313L37.3716 62.8848Z" stroke="white" stroke-opacity="0.1" stroke-width="0.274366"/>
<path d="M40.8424 60.1861C33.4385 49.6404 44.4892 35.994 56.3438 41.0436L82.7374 52.2862C89.0965 54.9949 96.4579 52.169 99.3712 45.9009L111.463 19.8854C116.893 8.20058 134.237 10.9477 135.791 23.7388L139.252 52.2173C140.085 59.0788 146.213 64.0411 153.098 63.43L181.674 60.894C194.509 59.7548 200.802 76.1483 190.501 83.8899L167.569 101.126C162.043 105.279 160.809 113.067 164.781 118.724L181.265 142.203C188.669 152.749 177.619 166.395 165.764 161.346L139.37 150.103C133.011 147.394 125.65 150.22 122.737 156.488L110.645 182.504C105.214 194.188 87.871 191.442 86.3167 178.651L82.8563 150.172C82.0225 143.31 75.8948 138.348 69.0099 138.959L40.4338 141.495C27.599 142.635 21.3062 126.241 31.6066 118.499L54.5397 101.263C60.0651 97.1104 61.2984 89.3226 57.3267 83.6656L40.8424 60.1861Z" stroke="white" stroke-opacity="0.1" stroke-width="0.274366"/>
<path d="M44.3902 57.7431C37.5483 46.8243 49.2983 33.7749 60.8724 39.438L85.5432 51.5091C91.7519 54.5469 99.251 52.1102 102.488 46.0032L115.352 21.7363C121.387 10.3517 138.563 14.0025 139.446 26.8574L141.328 54.2588C141.801 61.1546 147.661 66.4308 154.568 66.1809L182.016 65.1876C194.893 64.7217 200.319 81.4222 189.628 88.6142L166.838 103.944C161.103 107.802 159.464 115.515 163.134 121.372L177.718 144.646C184.56 155.565 172.81 168.614 161.236 162.951L136.565 150.88C130.356 147.842 122.857 150.279 119.62 156.386L106.756 180.653C100.721 192.038 83.5448 188.387 82.6621 175.532L80.7806 148.13C80.3072 141.234 74.4473 135.958 67.5398 136.208L40.0919 137.201C27.2151 137.667 21.7888 120.967 32.4802 113.775L55.2696 98.4449C61.0048 94.587 62.6444 86.8741 58.9743 81.017L44.3902 57.7431Z" stroke="white" stroke-opacity="0.1" stroke-width="0.274366"/>
<path d="M47.9972 55.5553C41.7362 44.2934 54.153 31.8769 65.4149 38.138L88.3519 50.89C94.3931 54.2486 102.01 52.2079 105.562 46.2786L119.05 23.7665C125.673 12.7134 142.634 17.2583 142.843 30.1418L143.268 56.3817C143.38 63.2928 148.955 68.8684 155.867 68.9803L182.107 69.4056C194.99 69.6143 199.535 86.5756 188.482 93.1982L165.97 106.686C160.041 110.239 158 117.855 161.359 123.896L174.111 146.833C180.372 158.095 167.955 170.512 156.693 164.251L133.756 151.499C127.715 148.14 120.098 150.181 116.546 156.11L103.058 178.622C96.4352 189.676 79.4735 185.131 79.2648 172.247L78.8399 146.007C78.728 139.096 73.1524 133.521 66.2413 133.409L40.0011 132.983C27.1175 132.775 22.5726 115.813 33.6258 109.191L56.1379 95.7026C62.0671 92.1501 64.1078 84.5338 60.7492 78.4927L47.9972 55.5553Z" stroke="white" stroke-opacity="0.1" stroke-width="0.274366"/>
<path d="M51.6476 53.6231C45.9845 42.049 59.034 30.2993 69.9527 37.1412L91.1553 50.4271C97.0124 54.0972 104.725 52.4579 108.583 46.7227L122.549 25.9614C129.741 15.27 146.441 20.6963 145.975 33.5732L145.071 58.578C144.821 65.4855 150.097 71.3453 156.993 71.8188L181.955 73.5331C194.81 74.4158 198.461 91.5917 187.076 97.6267L164.969 109.346C158.862 112.583 156.426 120.082 159.463 126.291L170.46 148.766C176.123 160.34 163.074 172.09 152.155 165.248L130.953 151.962C125.095 148.292 117.383 149.931 113.525 155.667L99.559 176.428C92.367 187.119 75.6669 181.693 76.1328 168.816L77.0373 143.811C77.2872 136.904 72.011 131.044 65.1152 130.57L40.1526 128.856C27.2977 127.974 23.6469 110.798 35.0315 104.763L57.1386 93.0434C63.2456 89.8061 65.6823 82.3069 62.6445 76.0982L51.6476 53.6231Z" stroke="white" stroke-opacity="0.1" stroke-width="0.274366"/>
<path d="M55.3242 51.9439C50.2747 40.0893 63.9211 29.0386 74.4668 36.4425L93.9448 50.1175C99.6018 54.0892 107.39 52.8559 111.542 47.3305L125.841 28.3058C133.583 18.0054 149.976 24.2982 148.837 37.133L146.733 60.839C146.122 67.7239 151.084 73.8516 157.946 74.6854L181.571 77.5562C194.362 79.1104 197.109 96.4539 185.425 101.885L163.843 111.916C157.574 114.829 154.749 122.19 157.457 128.549L166.784 150.445C171.834 162.299 158.187 173.35 147.641 165.946L128.163 152.271C122.506 148.299 114.718 149.533 110.565 155.059L96.2668 174.083C88.5252 184.384 72.1317 178.09 73.2708 165.256L75.3748 141.55C75.9859 134.665 71.0237 128.537 64.1621 127.703L40.5371 124.833C27.7459 123.279 24.9988 105.935 36.6837 100.504L58.2653 90.4733C64.5334 87.56 67.3593 80.1986 64.6506 73.8394L55.3242 51.9439Z" stroke="white" stroke-opacity="0.1" stroke-width="0.274366"/>
<path d="M59.0105 50.5158C54.5883 38.4132 68.7941 28.0918 78.9379 36.0375L96.7112 49.9595C102.153 54.2218 109.995 53.3978 114.431 48.0973L128.921 30.784C137.191 20.9029 153.233 28.0453 151.424 40.8029L148.253 63.156C147.283 69.9995 151.918 76.3787 158.726 77.5704L180.965 81.4629C193.657 83.6844 195.493 101.148 183.54 105.96L162.596 114.391C156.184 116.972 152.977 124.176 155.349 130.668L163.098 151.873C167.52 163.976 153.314 174.297 143.17 166.352L125.397 152.429C119.955 148.167 112.114 148.992 107.677 154.292L93.1869 171.605C84.9168 181.486 68.875 174.344 70.6843 161.586L73.8544 139.233C74.825 132.39 70.1903 126.011 63.3818 124.819L41.1431 120.926C28.4508 118.705 26.6153 101.241 38.5683 96.4293L59.5117 87.9983C65.9237 85.417 69.1311 78.2134 66.7589 71.7212L59.0105 50.5158Z" stroke="white" stroke-opacity="0.1" stroke-width="0.274366"/>
<path d="M62.6907 49.3344C58.9079 37.0169 73.6347 27.4532 83.3487 35.9189L99.4475 49.9489C104.658 54.4901 112.533 54.0777 117.24 49.0167L131.784 33.3804C140.56 23.9457 156.206 31.9179 153.732 44.5633L149.631 65.5202C148.303 72.3036 152.598 78.9165 159.334 80.4629L180.148 85.2407C192.707 88.1235 193.625 105.659 181.437 109.839L161.237 116.766C154.699 119.008 151.119 126.033 153.148 132.641L159.418 153.055C163.2 165.372 148.473 174.936 138.759 166.47L122.66 152.44C117.449 147.899 109.575 148.312 104.868 153.373L90.3235 169.009C81.5476 178.443 65.9017 170.471 68.3762 157.826L72.4774 136.869C73.8048 130.085 69.5102 123.473 62.7734 121.926L41.9602 117.148C29.4016 114.266 28.4824 96.73 40.6709 92.5503L60.871 85.6234C67.4092 83.3812 70.9886 76.3556 68.9594 69.7482L62.6907 49.3344Z" stroke="white" stroke-opacity="0.1" stroke-width="0.274366"/>
<path d="M66.3488 48.3955C63.2159 35.8969 78.4233 27.1169 87.681 36.0794L102.145 50.0824C107.111 54.8901 114.996 54.8901 119.962 50.0824L134.427 36.0794C143.685 27.1169 158.892 35.8969 155.759 48.3955L150.864 67.9235C149.183 74.6281 153.126 81.4567 159.772 83.3536L179.132 88.8783C191.522 92.4144 191.522 109.974 179.132 113.51L159.772 119.035C153.126 120.932 149.183 127.761 150.864 134.466L155.759 153.994C158.892 166.492 143.685 175.272 134.427 166.31L119.962 152.306C114.996 147.499 107.111 147.499 102.145 152.306L87.681 166.31C78.4233 175.272 63.2159 166.492 66.3488 153.994L71.2438 134.466C72.9244 127.761 68.982 120.932 62.3353 119.035L42.9762 113.51C30.5857 109.974 30.5857 92.4144 42.9762 88.8783L62.3353 83.3536C68.982 81.4567 72.9244 74.6281 71.2438 67.9235L66.3488 48.3955Z" stroke="white" stroke-opacity="0.1" stroke-width="0.274366"/>
<path d="M69.9708 47.6862C67.4963 35.0408 83.1423 27.0689 91.9181 36.5036L104.798 50.3497C109.505 55.4107 117.379 55.8235 122.59 51.2822L136.846 38.8583C146.56 30.3926 161.287 39.9562 157.504 52.2737L151.953 70.3506C149.924 76.958 153.503 83.9837 160.042 86.2258L177.929 92.3597C190.118 96.5394 189.199 114.075 176.64 116.958L158.209 121.188C151.472 122.735 147.178 129.348 148.505 136.131L152.137 154.689C154.612 167.335 138.966 175.307 130.19 165.872L117.31 152.026C112.603 146.965 104.729 146.552 99.5178 151.093L85.2617 163.518C75.5477 171.983 60.821 162.419 64.6037 150.102L70.1551 132.025C72.1842 125.417 68.6045 118.392 62.0662 116.15L44.1786 110.016C31.9901 105.836 32.9093 88.3006 45.4679 85.4178L63.8987 81.187C70.6355 79.6406 74.9298 73.0278 73.6024 66.2444L69.9708 47.6862Z" stroke="white" stroke-opacity="0.1" stroke-width="0.274366"/>
<path d="M73.5417 47.214C71.7324 34.4565 87.7741 27.3141 96.0442 37.1951L107.396 50.759C111.833 56.0595 119.675 56.8839 125.116 52.6216L139.04 41.7145C149.184 33.7688 163.39 44.0902 158.968 56.1928L152.898 72.8061C150.526 79.2983 153.733 86.5015 160.145 89.0828L176.553 95.6881C188.506 100.5 186.67 117.964 173.978 120.185L156.555 123.235C149.747 124.427 145.112 130.806 146.083 137.649L148.566 155.162C150.375 167.919 134.334 175.061 126.064 165.18L114.711 151.617C110.275 146.316 102.433 145.492 96.9917 149.754L83.0675 160.661C72.9238 168.607 58.7175 158.286 63.1397 146.183L69.2101 129.569C71.5823 123.077 68.3752 115.874 61.9633 113.293L45.5552 106.687C33.6022 101.876 35.4377 84.4122 48.13 82.1906L65.5526 79.1409C72.3611 77.9492 76.9958 71.57 76.0252 64.7265L73.5417 47.214Z" stroke="white" stroke-opacity="0.1" stroke-width="0.274366"/>
<path d="M77.0472 46.9645C75.9081 34.1297 92.3016 27.8369 100.043 38.1373L109.936 51.2996C114.089 56.825 121.877 58.0584 127.534 54.0867L141.009 44.6258C151.555 37.2219 165.202 48.2726 160.152 60.1272L153.7 75.2757C150.991 81.6349 153.816 88.9959 160.085 91.9092L175.016 98.8493C186.701 104.28 183.954 121.624 171.163 123.178L154.818 125.164C147.956 125.998 142.994 132.126 143.605 139.01L145.061 155.411C146.2 168.246 129.806 174.539 122.065 164.239L112.172 151.077C108.019 145.551 100.231 144.318 94.5742 148.289L81.0984 157.75C70.5527 165.154 56.9063 154.104 61.9558 142.249L68.4081 127.101C71.1169 120.741 68.2914 113.38 62.0233 110.467L47.0916 103.527C35.4068 98.0961 38.1539 80.7523 50.9451 79.198L67.2903 77.2122C74.1518 76.3785 79.1141 70.2504 78.503 63.3654L77.0472 46.9645Z" stroke="white" stroke-opacity="0.1" stroke-width="0.274366"/>
<path d="M80.4746 46.9293C80.0088 34.0525 96.7089 28.6262 103.901 39.3176L112.409 51.9652C116.267 57.7004 123.98 59.3401 129.837 55.6699L142.754 47.5758C153.672 40.7339 166.722 52.4839 161.059 64.058L154.359 77.75C151.321 83.9587 153.758 91.4578 159.865 94.6952L173.333 101.834C184.718 107.869 181.067 125.046 168.212 125.928L153.004 126.972C146.108 127.446 140.832 133.306 141.082 140.213L141.634 155.446C142.099 168.323 125.399 173.749 118.207 163.058L109.699 150.41C105.841 144.675 98.1285 143.036 92.2714 146.706L79.3546 154.8C68.4359 161.642 55.3861 149.892 61.0492 138.318L67.7486 124.626C70.7864 118.417 68.35 110.918 62.243 107.68L48.775 100.541C37.3904 94.5062 41.0415 77.3302 53.8965 76.4476L69.1036 75.4032C75.9994 74.9297 81.2755 69.0699 81.0256 62.1624L80.4746 46.9293Z" stroke="white" stroke-opacity="0.1" stroke-width="0.274366"/>
<path d="M83.8105 47.0997C84.0192 34.2162 100.981 29.6713 107.603 40.7245L114.809 52.7519C118.362 58.6811 125.979 60.7218 132.02 57.3632L144.274 50.5506C155.536 44.2896 167.953 56.706 161.692 67.9679L154.879 80.2222C151.52 86.2634 153.561 93.88 159.49 97.4325L171.517 104.638C182.571 111.261 178.026 128.223 165.142 128.431L151.123 128.658C144.212 128.77 138.637 134.346 138.525 141.257L138.297 155.276C138.089 168.16 121.127 172.705 114.504 161.651L107.298 149.624C103.746 143.695 96.1297 141.654 90.0885 145.013L77.8339 151.825C66.572 158.086 54.1555 145.67 60.4166 134.408L67.2292 122.153C70.5878 116.112 68.5471 108.496 62.6179 104.943L50.5904 97.7374C39.5373 91.1149 44.0822 74.1532 56.9657 73.9445L70.985 73.7173C77.8961 73.6054 83.4717 68.0302 83.5837 61.119L83.8105 47.0997Z" stroke="white" stroke-opacity="0.1" stroke-width="0.274366"/>
<path d="M87.0438 47.4661C87.9264 34.6111 105.103 30.9604 111.138 42.345L117.132 53.6529C120.369 59.7599 127.869 62.1966 134.077 59.1588L145.574 53.5336C157.148 47.8705 168.897 60.92 162.055 71.8387L155.26 82.6844C151.589 88.5415 153.229 96.254 158.964 100.112L169.583 107.255C180.275 114.447 174.849 131.148 161.972 130.682L149.181 130.219C142.274 129.97 136.414 135.245 135.941 142.141L135.064 154.91C134.181 167.765 117.005 171.416 110.97 160.031L104.976 148.723C101.738 142.616 94.2393 140.179 88.0306 143.217L76.5346 148.842C64.9605 154.505 53.2105 141.456 60.0524 130.537L66.8483 119.692C70.5185 113.835 68.8792 106.122 63.144 102.264L52.5244 95.1204C41.833 87.9285 47.2593 71.228 60.1361 71.6939L72.9265 72.1568C79.834 72.4067 85.6938 67.1305 86.1673 60.2348L87.0438 47.4661Z" stroke="white" stroke-opacity="0.1" stroke-width="0.274366"/>
<path d="M90.1631 48.0177C91.7173 35.2266 109.061 32.4795 114.492 44.1643L119.371 54.6625C122.284 60.9306 129.646 63.7561 136.005 61.0473L146.655 56.5109C158.51 51.4613 169.561 65.1078 162.157 75.6534L155.505 85.1282C151.533 90.7852 152.767 98.5729 158.292 102.726L167.546 109.681C177.846 117.423 171.554 133.816 158.719 132.677L147.188 131.654C140.303 131.043 134.175 136.005 133.341 142.866L131.945 154.358C130.391 167.149 113.047 169.896 107.616 158.211L102.737 147.713C99.8236 141.445 92.4622 138.619 86.103 141.328L75.4529 145.865C63.5983 150.915 52.5473 137.268 59.9512 126.722L66.603 117.248C70.5747 111.591 69.3414 103.803 63.816 99.6501L54.5621 92.6948C44.2617 84.9532 50.5545 68.5597 63.3893 69.6988L74.9201 70.7223C81.8051 71.3333 87.9331 66.3711 88.7669 59.5095L90.1631 48.0177Z" stroke="white" stroke-opacity="0.1" stroke-width="0.274366"/>
<path d="M93.1581 48.7441C95.3797 36.0518 112.843 34.2163 117.655 46.1693L121.522 55.7743C124.103 62.1863 131.306 65.3933 137.799 63.0211L147.524 59.4676C159.626 55.0454 169.948 69.2517 162.002 79.3954L155.617 87.5464C151.355 92.9878 152.179 100.83 157.48 105.266L165.42 111.912C175.301 120.182 168.158 136.223 155.401 134.414L145.149 132.96C138.306 131.989 131.927 136.624 130.735 143.433L128.95 153.632C126.728 166.324 109.265 168.16 104.453 156.207L100.586 146.602C98.0047 140.19 90.8015 136.983 84.3093 139.355L74.5843 142.908C62.4817 147.33 52.1599 133.124 60.1056 122.98L66.4905 114.83C70.7528 109.388 69.9287 101.546 64.6282 97.1098L56.6881 90.4644C46.8071 82.1943 53.9494 66.1525 66.707 67.9618L76.9585 69.4159C83.802 70.3865 90.1812 65.7515 91.3729 58.9429L93.1581 48.7441Z" stroke="white" stroke-opacity="0.1" stroke-width="0.274366"/>
<path d="M96.0193 49.6333C98.9021 37.0747 116.438 36.1558 120.617 48.3443L123.58 56.9823C125.822 63.5206 132.848 67.1003 139.455 65.0712L148.184 62.3903C160.502 58.6075 170.066 73.3343 161.6 83.0483L155.6 89.9326C151.059 95.1435 151.471 103.018 156.533 107.725L163.219 113.945C172.654 122.721 164.682 138.367 152.037 135.892L143.074 134.139C136.291 132.811 129.678 137.105 128.132 143.842L126.089 152.743C123.206 165.302 105.67 166.22 101.49 154.032L98.5284 145.394C96.2863 138.856 89.2607 135.276 82.6532 137.305L73.9236 139.986C61.6062 143.769 52.0425 129.042 60.5082 119.328L66.5079 112.443C71.0491 107.232 70.6364 99.3584 65.5753 94.6508L58.8891 88.4313C49.4544 79.6555 57.4262 64.0095 70.0716 66.484L79.0334 68.2377C85.8168 69.5651 92.4296 65.2705 93.976 58.5336L96.0193 49.6333Z" stroke="white" stroke-opacity="0.1" stroke-width="0.274366"/>
<path d="M98.7379 50.6734C102.274 38.2829 119.834 38.2829 123.37 50.6734L125.541 58.2791C127.438 64.9258 134.266 68.8682 140.971 67.1876L148.643 65.2646C161.141 62.1317 169.921 77.3388 160.959 86.5964L155.457 92.2794C150.65 97.2455 150.65 105.13 155.457 110.096L160.959 115.779C169.921 125.037 161.141 140.244 148.643 137.111L140.971 135.188C134.266 133.507 127.438 137.45 125.541 144.097L123.37 151.702C119.834 164.093 102.274 164.093 98.7379 151.702L96.5675 144.097C94.6706 137.45 87.842 133.507 81.1374 135.188L73.465 137.111C60.9664 140.244 52.1865 125.037 61.1489 115.779L66.6506 110.096C71.4583 105.13 71.4583 97.2455 66.6506 92.2794L61.1489 86.5964C52.1865 77.3388 60.9664 62.1317 73.465 65.2646L81.1374 67.1876C87.842 68.8682 94.6706 64.9258 96.5675 58.2791L98.7379 50.6734Z" stroke="white" stroke-opacity="0.1" stroke-width="0.274366"/>
</mask>
<g mask="url(#mask0_84_3188)">
<rect x="12.5454" y="3.07617" width="196.237" height="196.237" fill="#D9D9D9"/>
</g>
</svg>
