<svg width="558" height="118" viewBox="0 0 558 118" fill="none" xmlns="http://www.w3.org/2000/svg">
<path d="M324.698 110.886C324.698 110.973 325.738 110.409 327.774 109.153C329.854 107.896 332.28 106.25 335.096 104.214C337.913 102.134 340.816 99.9241 343.805 97.4544C346.751 95.0281 349.221 92.6884 351.128 90.4786C353.034 88.2689 354.074 86.4058 354.204 84.8027C354.334 83.2429 353.034 82.2031 350.261 81.7265C346.795 81.2498 343.935 81.2932 341.552 81.8564C339.212 82.4197 337.089 83.1129 335.14 83.8495C333.233 84.6294 331.413 85.3227 329.767 86.0159C328.077 86.7091 326.257 86.9258 324.221 86.7525C320.018 86.7525 317.115 85.4526 315.512 82.8096C313.909 80.1667 313.129 76.6138 313.129 72.1077C313.129 67.6016 314.126 63.3122 316.162 59.2394C318.155 55.1666 320.755 51.657 323.918 48.6674C327.081 45.7211 330.72 43.3381 334.836 41.5617C338.952 39.7853 343.155 38.9187 347.488 38.9187C349.221 38.9187 350.694 39.0487 351.951 39.352C353.207 39.6553 353.814 40.7385 353.814 42.6449C353.814 43.988 353.251 45.2445 352.081 46.4577C350.911 47.6709 349.654 48.2342 348.181 48.2342C348.095 48.2342 347.835 48.1475 347.445 48.0175C347.055 47.8875 346.665 47.6709 346.275 47.3676C345.885 47.0643 345.495 46.8477 345.105 46.7177C344.715 46.5877 344.498 46.501 344.368 46.501C341.292 45.6345 338.346 46.0678 335.486 47.8009C332.627 49.534 330.07 51.8304 327.817 54.7766C325.564 57.6796 323.788 60.8425 322.445 64.2654C321.101 67.6883 320.452 70.7212 320.452 73.4075C320.452 74.4474 320.668 75.314 321.101 75.9205C321.535 76.5271 322.098 77.0037 322.835 77.2637C323.571 77.567 324.351 77.7403 325.261 77.7836C326.171 77.827 327.081 77.8703 328.077 77.8703C329.984 77.8703 331.933 77.567 333.883 77.0037C335.833 76.4405 337.783 75.7472 339.646 75.0107C341.509 74.2741 343.415 73.5809 345.408 73.0176C347.401 72.4543 349.394 72.151 351.517 72.151C352.471 72.151 353.511 72.411 354.68 72.9309C355.85 73.4509 356.89 74.2308 357.843 75.2273C358.797 76.2238 359.62 77.3937 360.27 78.6935C360.92 79.9933 361.31 81.3798 361.44 82.9396C362.003 84.2828 361.829 86.0592 360.92 88.2689C360.01 90.4786 358.667 92.8183 356.803 95.288C354.984 97.801 352.774 100.314 350.218 102.827C347.618 105.383 345.062 107.68 342.462 109.716C339.862 111.796 337.349 113.442 334.836 114.742C332.323 116.042 330.244 116.649 328.51 116.519C326.604 116.519 325.478 115.955 325.131 114.785C324.871 113.616 324.698 112.316 324.698 110.886Z" fill="#FF8100" stroke="#FF8100" stroke-width="1.73311" stroke-miterlimit="10"/>
<path d="M371.058 51.7005C370.105 52.1771 369.195 52.697 368.415 53.217C367.592 53.7369 366.812 54.2135 366.032 54.6468C365.252 55.0801 364.516 55.3834 363.736 55.5567C362.956 55.73 362.133 55.73 361.31 55.5567C360.746 55.5567 360.27 55.2101 359.88 54.4735C359.49 53.7369 359.186 52.957 358.926 52.0471C358.71 51.1372 358.537 50.2274 358.407 49.3175C358.32 48.4076 358.32 47.7144 358.407 47.2378L372.228 39.3521L373.095 2.56692C373.268 1.31041 374.048 0.83381 375.391 1.05045C376.734 1.31041 378.121 1.61371 379.55 2.00366C379.724 2.00366 380.07 2.09031 380.504 2.2203C380.937 2.35028 381.24 2.48026 381.457 2.56692C381.284 5.16658 381.067 7.93955 380.807 10.9725C380.547 14.0054 380.374 16.995 380.157 20.028C379.94 23.0609 379.854 26.0072 379.81 28.8668C379.767 31.7264 379.897 34.3261 380.157 36.6225L401.691 30.5999C402.081 30.5133 402.384 30.7732 402.644 31.3798C402.861 31.9864 403.121 32.7663 403.381 33.5895C403.597 34.4561 403.814 35.7559 404.031 37.4457L379.55 47.8443C379.55 48.7109 379.637 50.7473 379.767 53.9969C379.897 57.2465 380.07 61.1026 380.287 65.5654C380.46 70.0281 380.677 74.7942 380.85 79.9068C381.024 85.0195 381.24 89.7855 381.414 94.205C381.587 98.6244 381.76 102.481 381.847 105.773C381.933 109.066 381.977 111.146 381.977 112.013C381.76 114.872 380.937 116.345 379.464 116.345C377.991 116.345 376.388 115.609 374.654 114.179L371.058 51.7005Z" fill="#FF8100" stroke="#FF8100" stroke-width="1.73311" stroke-miterlimit="10"/>
<path d="M441.336 109.283C440.859 106.813 440.426 103.824 440.123 100.314C439.776 96.8046 439.429 93.295 439.039 89.6988C438.649 86.1026 438.216 82.7231 437.653 79.5601C437.133 76.3972 436.353 73.7976 435.27 71.8045C430.374 81.7699 426.084 89.6122 422.358 95.2881C418.632 100.964 415.339 105.037 412.523 107.507C409.707 109.976 407.324 111.103 405.417 111.016C403.511 110.929 401.908 110.063 400.694 108.416C399.438 106.77 398.571 104.69 398.051 102.177C397.532 99.6209 397.185 97.2812 396.968 95.0715C396.968 92.9484 397.445 90.0021 398.398 86.146C399.351 82.2898 400.651 78.1303 402.298 73.5809C403.944 69.0315 405.85 64.3955 408.103 59.7161C410.357 55.0367 412.783 50.7472 415.339 46.9344C417.896 43.1216 420.625 39.9586 423.398 37.4456C426.171 34.9326 428.944 33.7195 431.717 33.7195C435.833 33.0695 438.866 33.9361 440.859 36.3625C442.809 38.7888 443.199 42.9049 441.942 48.6242C441.942 54.95 442.202 60.366 442.722 64.8721C443.242 69.3781 443.805 73.6676 444.455 77.7837C445.105 81.8998 445.669 86.1893 446.189 90.6954C446.708 95.2014 446.968 100.617 446.968 106.943C446.968 108.07 446.838 109.066 446.622 109.89C446.362 110.713 445.192 111.103 443.112 111.103C442.809 111.103 442.462 110.886 442.029 110.366C441.552 109.976 441.336 109.586 441.336 109.283ZM433.58 45.1146C432.54 43.5982 431.067 43.4249 429.291 44.6814C427.471 45.9379 425.565 47.9743 423.528 50.8339C421.535 53.6935 419.455 57.1597 417.332 61.1892C415.209 65.2187 413.259 69.2915 411.44 73.4076C409.62 77.5238 408.06 81.4232 406.717 85.1061C405.374 88.7889 404.464 91.8219 403.987 94.2482C403.987 97.7145 404.507 99.6209 405.547 100.054C406.587 100.487 407.887 99.9242 409.447 98.4077C410.963 96.8912 412.74 94.6815 414.689 91.8219C416.639 88.9623 418.589 85.886 420.452 82.6364C422.315 79.3868 424.091 76.2239 425.781 73.1477C427.471 70.0714 428.771 67.6017 429.724 65.6953C430.591 63.7022 431.24 61.8391 431.717 60.106C432.194 58.3729 432.584 56.7265 432.93 55.1667C433.277 53.6069 433.45 52.0037 433.494 50.3573C433.537 48.6242 433.58 46.8911 433.58 45.1146Z" fill="#FF8100" stroke="#FF8100" stroke-width="1.73311" stroke-miterlimit="10"/>
<path d="M456.847 43.8148V42.6449C456.847 41.6917 457.194 40.9985 457.93 40.6518C458.667 40.3052 459.49 40.0886 460.443 40.0886C461.223 40.0886 461.916 40.1752 462.61 40.3052C463.26 40.4352 463.823 40.9985 464.213 41.9517C464.516 43.3815 464.776 45.3746 465.079 47.9309C465.383 50.4872 465.686 53.2602 466.076 56.3365C466.466 59.4127 466.856 62.619 467.289 66.0419C467.722 69.4648 468.156 72.6277 468.589 75.6606C469.022 78.6935 469.455 81.3799 469.975 83.7629C470.452 86.1459 470.972 87.9657 471.578 89.2222C471.275 80.0367 471.578 72.0644 472.445 65.3053C473.312 58.5462 474.958 53.0436 477.384 48.7974C479.811 44.5513 483.19 41.5617 487.436 39.8719C491.682 38.1822 497.055 37.8355 503.468 38.7888C506.414 38.7888 507.93 40.3919 507.93 43.5115C507.93 44.768 507.107 45.5912 505.504 46.0245C503.858 46.4578 502.081 46.761 500.045 46.891C498.052 47.021 496.059 47.1943 494.152 47.411C492.246 47.5843 490.859 48.1042 489.993 48.8408C486.527 50.7472 484.143 53.7368 482.757 57.7663C481.37 61.7957 480.374 66.5185 479.811 71.9778C479.247 77.437 478.814 83.4163 478.598 89.8721C478.338 96.3279 477.731 102.957 476.648 109.759C476.648 110.713 476.258 111.449 475.478 111.926C474.698 112.402 473.788 112.662 472.662 112.662C471.578 112.662 470.495 112.446 469.499 111.926C468.502 111.449 467.679 110.713 467.116 109.759L456.847 43.8148Z" fill="#FF8100" stroke="#FF8100" stroke-width="1.73311" stroke-miterlimit="10"/>
<path d="M523.962 51.7005C523.008 52.1771 522.099 52.697 521.319 53.217C520.495 53.7369 519.716 54.2135 518.936 54.6468C518.156 55.0801 517.419 55.3834 516.639 55.5567C515.859 55.73 515.036 55.73 514.213 55.5567C513.65 55.5567 513.173 55.2101 512.783 54.4735C512.393 53.7369 512.09 52.957 511.83 52.0471C511.57 51.1372 511.44 50.2274 511.31 49.3175C511.223 48.4076 511.223 47.7144 511.31 47.2378L525.088 39.3521L525.955 2.56692C526.128 1.31041 526.908 0.83381 528.251 1.05045C529.594 1.31041 530.981 1.61371 532.411 2.00366C532.584 2.00366 532.931 2.09031 533.364 2.2203C533.797 2.35028 534.1 2.48026 534.317 2.56692C534.144 5.16658 533.927 7.93955 533.667 10.9725C533.407 14.0054 533.19 16.995 533.017 20.028C532.844 23.0609 532.714 26.0072 532.671 28.8668C532.627 31.7264 532.757 34.3261 533.017 36.6225L554.551 30.5999C554.941 30.5133 555.244 30.7732 555.504 31.3798C555.764 31.9864 555.981 32.7663 556.241 33.5895C556.501 34.4561 556.717 35.7559 556.891 37.4457L532.497 47.801C532.497 48.6676 532.584 50.704 532.714 53.9969C532.844 57.2465 533.017 61.1026 533.234 65.5654C533.407 70.0281 533.624 74.7942 533.797 79.9068C533.97 85.0195 534.187 89.7855 534.36 94.205C534.534 98.6244 534.707 102.481 534.794 105.773C534.88 109.066 534.924 111.146 534.924 112.013C534.75 114.872 533.884 116.345 532.411 116.345C530.937 116.345 529.334 115.609 527.601 114.179L523.962 51.7005Z" fill="#FF8100" stroke="#FF8100" stroke-width="1.73311" stroke-miterlimit="10"/>
<path d="M20.7539 116.822V34.3262C17.8509 36.4926 14.2981 37.8357 10.4419 37.8357C6.62906 37.8357 3.16285 36.5792 0.303223 34.4995V116.865" fill="#4141AF"/>
<path d="M10.4419 31.0331C16.2045 31.0331 20.8839 26.3537 20.8839 20.5911C20.8839 14.8286 16.2045 10.1492 10.4419 10.1492C4.67933 10.1492 -6.10352e-05 14.7852 -6.10352e-05 20.5911C-6.10352e-05 26.3537 4.67933 31.0331 10.4419 31.0331Z" fill="#FF8100"/>
<path d="M89.5149 116.822C99.5236 116.735 103.38 116.649 109.966 116.475V65.6953C109.966 61.4925 109.402 57.4197 108.276 53.4335C107.149 49.4474 105.33 45.9378 102.903 42.8616C100.477 39.7853 97.3139 37.3156 93.5444 35.4525C89.7316 33.5894 85.1389 32.6362 79.8095 32.6362C73.657 32.6362 68.371 34.196 63.865 37.3156C59.3589 40.4352 56.2393 44.0314 54.4195 48.1475H54.0729V34.9759H34.6188V116.822H55.0694V71.8478C55.0694 69.1181 55.4594 66.4318 56.2826 63.7455C57.0625 61.0592 58.2324 58.7195 59.7922 56.6831C61.3086 54.6467 63.3017 52.9569 65.6847 51.6571C68.0677 50.3573 70.9274 49.7073 74.2203 49.7073C77.5132 49.7073 80.1562 50.4006 82.1492 51.7437C84.1423 53.0869 85.7021 54.82 86.8286 56.9431C87.9552 59.0661 88.6917 61.4058 89.0383 64.0055C89.385 66.6051 89.5583 69.1181 89.5583 71.5012L89.5149 116.822Z" fill="#4141AF"/>
<path d="M178.553 116.822C188.562 116.735 192.418 116.649 199.004 116.475V65.6953C199.004 61.4925 198.441 57.4197 197.314 53.4335C196.188 49.4474 194.368 45.9378 191.942 42.8616C189.515 39.7853 186.352 37.3156 182.583 35.4525C178.813 33.5894 174.177 32.6362 168.848 32.6362C162.695 32.6362 157.409 34.196 152.903 37.3156C148.397 40.4352 145.278 44.0314 143.458 48.1475H143.111V34.9759H123.657V116.822H144.108V71.8478C144.108 69.1181 144.498 66.4318 145.321 63.7455C146.101 61.0592 147.271 58.7195 148.831 56.6831C150.347 54.6467 152.34 52.9569 154.723 51.6571C157.106 50.3573 159.966 49.7073 163.259 49.7073C166.552 49.7073 169.195 50.4006 171.188 51.7437C173.181 53.0869 174.741 54.82 175.867 56.9431C176.994 59.0661 177.73 61.4058 178.077 64.0055C178.423 66.6051 178.597 69.1181 178.597 71.5012V116.822H178.553Z" fill="#4141AF"/>
<path d="M256.067 62.749C250.304 62.749 245.625 67.4284 245.625 73.191C245.625 78.9536 250.304 83.633 256.067 83.633C261.829 83.633 266.509 78.9536 266.509 73.191C266.509 67.4284 261.829 62.749 256.067 62.749Z" fill="#FF8100"/>
<path d="M256.067 29.8633C232.15 29.8633 212.739 49.2741 212.739 73.191C212.739 97.1079 232.15 116.519 256.067 116.519C279.983 116.519 299.394 97.1079 299.394 73.191C299.394 49.2741 279.983 29.8633 256.067 29.8633ZM256.067 98.4943C242.072 98.4943 230.763 87.1425 230.763 73.191C230.763 59.2395 242.115 47.8876 256.067 47.8876C270.018 47.8876 281.37 59.2395 281.37 73.191C281.37 87.1425 270.018 98.4943 256.067 98.4943Z" fill="#4141AF"/>
</svg>
