<svg width="365" height="136" viewBox="0 0 365 136" fill="none" xmlns="http://www.w3.org/2000/svg">
<path d="M149.275 57.7257C149.275 55.9089 149.666 54.1718 150.446 52.5072C151.226 50.8426 152.336 49.3956 153.772 48.159C155.208 46.9224 156.949 45.9287 158.99 45.1707C161.032 44.4164 163.338 44.0356 165.91 44.0356C168.278 44.0356 170.432 44.4128 172.376 45.1707C174.316 45.9287 175.991 46.9876 177.406 48.3476C178.816 49.7075 179.901 51.3104 180.659 53.1491C181.417 54.9914 181.794 56.9932 181.794 59.1618H173.097C173.097 57.044 172.466 55.3794 171.208 54.1718C169.946 52.9605 168.183 52.3585 165.913 52.3585C163.647 52.3585 161.881 52.9134 160.619 54.0231C159.357 55.1328 158.729 56.344 158.729 57.6532C158.729 59.0639 159.335 60.1483 160.542 60.9062C161.754 61.6641 163.266 62.3423 165.079 62.9479C166.896 63.5536 168.872 64.1846 171.016 64.8373C173.155 65.4937 175.135 66.375 176.952 67.4847C178.766 68.5944 180.278 70.045 181.489 71.8329C182.7 73.6244 183.302 75.9562 183.302 78.8284C183.302 80.5438 182.885 82.2047 182.055 83.8185C181.221 85.4323 180.049 86.8829 178.537 88.1667C177.025 89.4541 175.197 90.4877 173.054 91.2674C170.911 92.0507 168.528 92.4388 165.906 92.4388C163.233 92.4388 160.851 92.0616 158.758 91.3037C156.666 90.5457 154.889 89.4759 153.427 88.0906C151.966 86.7052 150.841 85.0661 150.062 83.1766C149.278 81.2872 148.89 79.2056 148.89 76.939H157.964C157.964 79.0569 158.671 80.7831 160.082 82.1177C161.493 83.4559 163.433 84.1232 165.906 84.1232C168.579 84.1232 170.57 83.5574 171.879 82.4223C173.188 81.2872 173.844 79.9635 173.844 78.4513C173.844 76.9898 173.239 75.8547 172.031 75.0496C170.82 74.2445 169.308 73.5265 167.494 72.8955C165.681 72.2645 163.701 71.6479 161.558 71.0423C159.415 70.4367 157.434 69.6062 155.621 68.5473C153.808 67.4883 152.296 66.1139 151.084 64.4275C149.877 62.7267 149.275 60.4964 149.275 57.7257Z" fill="#141414"/>
<path d="M205.99 83.7383C209.014 83.7383 211.408 82.8571 213.174 81.091C214.936 79.3285 215.821 76.9314 215.821 73.9068V44.416H224.895V73.9068C224.895 76.5796 224.427 79.0384 223.495 81.2796C222.563 83.5244 221.254 85.4754 219.564 87.14C217.874 88.8046 215.868 90.1029 213.551 91.0349C211.23 91.9669 208.71 92.4347 205.986 92.4347C203.263 92.4347 200.742 91.9705 198.425 91.0349C196.104 90.1029 194.102 88.8046 192.412 87.14C190.722 85.4754 189.413 83.5207 188.481 81.2796C187.549 79.0384 187.081 76.5796 187.081 73.9068V44.416H196.155V73.9068C196.155 76.9314 197.036 79.3285 198.802 81.091C200.572 82.8571 202.965 83.7383 205.99 83.7383Z" fill="#141414"/>
<path d="M249.095 44.4126C251.361 44.4126 253.479 44.8296 255.445 45.6601C257.41 46.4906 259.136 47.6257 260.627 49.0618C262.114 50.4979 263.274 52.1879 264.105 54.128C264.935 56.0682 265.352 58.1245 265.352 60.2895C265.352 62.4581 264.935 64.5144 264.105 66.4546C263.271 68.3948 262.114 70.0847 260.627 71.5208C259.14 72.9569 257.414 74.092 255.445 74.9225C253.479 75.753 251.361 76.17 249.095 76.17H240.398V92.0505H231.325V44.4126H249.095ZM249.095 67.4772C250.052 67.4772 250.959 67.2778 251.818 66.8716C252.674 66.4691 253.432 65.9396 254.088 65.2832C254.745 64.6304 255.271 63.8725 255.677 63.0166C256.079 62.1608 256.282 61.2505 256.282 60.2931C256.282 59.3357 256.079 58.4291 255.677 57.5696C255.271 56.7137 254.745 55.9558 254.088 55.303C253.432 54.6466 252.678 54.1172 251.818 53.7146C250.959 53.3121 250.052 53.109 249.095 53.109H240.398V67.4772H249.095Z" fill="#141414"/>
<path d="M264.221 87.5172C264.221 86.208 264.71 85.0584 265.693 84.0756C266.676 83.0928 267.822 82.5996 269.135 82.5996C270.444 82.5996 271.593 83.0928 272.576 84.0756C273.559 85.0584 274.052 86.2044 274.052 87.5172C274.052 88.83 273.559 89.9759 272.576 90.9587C271.593 91.9415 270.447 92.4347 269.135 92.4347C267.822 92.4347 266.676 91.9415 265.693 90.9587C264.71 89.9759 264.221 88.83 264.221 87.5172Z" fill="#141414"/>
<path d="M291.064 92.0576L274.049 44.416H283.503L295.605 79.2016L307.703 44.416H317.157L300.141 92.0576H291.064Z" fill="#141414"/>
<path d="M324.341 68.2347C324.341 70.5013 324.718 72.5829 325.476 74.4723C326.234 76.3617 327.239 78.0009 328.501 79.3899C329.759 80.7788 331.235 81.8486 332.925 82.6029C334.611 83.3573 336.414 83.738 338.332 83.738C339.946 83.738 341.407 83.4987 342.717 83.02C344.026 82.5413 345.201 81.9139 346.234 81.1306C347.268 80.3509 348.124 79.466 348.806 78.4832C349.487 77.5004 350.028 76.4778 350.43 75.4188H359.885C359.33 77.689 358.423 79.854 357.161 81.9212C355.899 83.9883 354.35 85.7907 352.508 87.3283C350.666 88.8659 348.548 90.1026 346.155 91.0346C343.757 91.9666 341.15 92.4344 338.329 92.4344C335.202 92.4344 332.243 91.8179 329.444 90.5813C326.644 89.3446 324.2 87.6329 322.107 85.4389C320.015 83.2448 318.35 80.6881 317.113 77.7652C315.877 74.8422 315.26 71.6654 315.26 68.2383C315.26 64.862 315.877 61.6961 317.113 58.7477C318.35 55.7994 320.011 53.2282 322.107 51.0341C324.196 48.8401 326.644 47.1284 329.444 45.8917C332.243 44.6551 335.202 44.0386 338.329 44.0386C341.052 44.0386 343.583 44.5064 345.93 45.4384C348.276 46.3704 350.354 47.6071 352.167 49.1447C353.981 50.6824 355.518 52.4847 356.78 54.5518C358.039 56.619 358.945 58.7876 359.504 61.0542H350.049C349.748 59.9952 349.266 58.9762 348.613 57.9898C347.957 57.007 347.137 56.1258 346.155 55.3424C345.172 54.5627 344.026 53.9317 342.713 53.453C341.4 52.9743 339.939 52.735 338.329 52.735C336.414 52.735 334.611 53.1121 332.921 53.8701C331.231 54.628 329.755 55.6978 328.497 57.0832C327.235 58.4721 326.227 60.1077 325.473 62.0007C324.718 63.8865 324.341 65.9645 324.341 68.2347Z" fill="#141414"/>
<path d="M44.5519 58.1535V48.0718H4.21777V88.4059C4.21777 110.68 22.2742 128.74 44.5519 128.74V88.4023V58.1535Z" fill="#FF9C20"/>
<path d="M84.8859 7.73779H44.5518V48.0719H84.8859V88.406C107.16 88.406 125.22 70.3496 125.22 48.0719C125.216 25.7942 107.16 7.73779 84.8859 7.73779Z" fill="#973DFC"/>
<path d="M44.5518 48.0684V58.1501V88.3988V128.733C66.8258 128.733 84.8859 110.677 84.8859 88.3988V48.0684H44.5518Z" fill="#F72AEE"/>
</svg>
