<svg width="459" height="153" viewBox="0 0 459 153" fill="none" xmlns="http://www.w3.org/2000/svg">
<path d="M62.4451 81.2447C60.6246 81.2447 58.9745 80.5049 57.7814 79.3118C56.5883 78.1187 55.8485 76.4686 55.8485 74.6481C55.8485 72.8276 56.5883 71.1775 57.7814 69.9844C58.9745 68.7913 60.6246 68.0515 62.4451 68.0515C64.2656 68.0515 65.9157 68.7913 67.1088 69.9844C68.3019 71.1775 69.0417 72.8276 69.0417 74.6481C69.0417 76.4686 68.3019 78.1187 67.1088 79.3118C65.9157 80.5049 64.2656 81.2447 62.4451 81.2447ZM36.6606 61.6325C37.4258 61.1901 37.9407 60.4793 38.1511 59.6887C38.3614 58.8981 38.2744 58.0242 37.8319 57.259C37.3895 56.4938 36.6787 55.9788 35.8881 55.7685C35.0975 55.5581 34.2235 55.6452 33.4583 56.0876C32.6932 56.53 32.1782 57.2408 31.9678 58.0314C31.7575 58.822 31.8445 59.696 32.287 60.4612C32.7294 61.2264 33.4402 61.7413 34.2308 61.9517C35.025 62.162 35.8954 62.0714 36.6606 61.6325ZM87.0401 60.4503C87.4826 61.2155 88.1934 61.7305 88.9839 61.9408C89.7745 62.1511 90.6485 62.0641 91.4137 61.6217C92.1789 61.1792 92.6939 60.4684 92.9042 59.6778C93.1145 58.8873 93.0275 58.0133 92.5851 57.2481C92.1426 56.4829 91.4318 55.9679 90.6413 55.7576C89.8507 55.5472 88.9767 55.6343 88.2115 56.0767C87.4463 56.5192 86.9313 57.23 86.721 58.0205C86.507 58.8147 86.5977 59.6851 87.0401 60.4503ZM60.8458 103.475C60.0806 103.918 59.5656 104.629 59.3553 105.419C59.145 106.21 59.232 107.084 59.6744 107.849C60.1169 108.614 60.8277 109.129 61.6182 109.339C62.4088 109.55 63.2828 109.463 64.048 109.02C64.8132 108.578 65.3282 107.867 65.5385 107.076C65.7488 106.286 65.6618 105.412 65.2194 104.647C64.7769 103.881 64.0661 103.366 63.2756 103.156C62.4814 102.942 61.611 103.033 60.8458 103.475ZM118.536 42.2633V69.0306V95.798C118.536 99.2649 117.604 102.609 115.922 105.524C114.239 108.44 111.806 110.921 108.806 112.65L85.6258 126.032L62.4451 139.414L39.2644 126.032L16.0837 112.65C13.0846 110.917 10.6512 108.436 8.96848 105.524C7.28577 102.612 6.35376 99.2649 6.35376 95.798V69.0306V42.2633L29.5345 28.8815L52.7151 15.4996C55.7179 13.7662 59.0797 12.8994 62.4451 12.8994C65.8105 12.8994 69.1759 13.7662 72.175 15.4996L95.3557 28.8815L118.536 42.2633ZM84.1933 25.0809C87.2722 28.1816 90.4527 31.9967 93.1435 36.5117C95.8344 41.0267 98.0393 46.238 99.1636 52.1274L107.131 47.5254L115.098 42.9233L99.6459 34.0021L84.1933 25.0809ZM30.3939 31.0284C38.1329 28.983 48.1203 27.8407 58.4414 30.6984C68.7661 33.5524 79.4244 40.4029 88.5125 54.336C88.3312 54.3904 88.1498 54.4484 87.9721 54.5209C87.7944 54.5935 87.6204 54.6733 87.4535 54.7712C87.1018 54.9743 86.7899 55.2172 86.5179 55.4929C86.2459 55.7685 86.0102 56.0731 85.8144 56.3959C84.7917 55.8229 83.6094 55.3913 82.2894 55.1048C80.9693 54.8183 79.5151 54.6733 77.9521 54.6733C77.6583 54.6733 77.3537 54.6841 77.0491 54.6986C76.7444 54.7132 76.4326 54.7349 76.1243 54.7567C76.7263 56.2979 77.2594 57.948 77.7127 59.6924C78.166 61.4367 78.5432 63.2754 78.8333 65.1902C80.3492 66.4014 81.7563 67.6489 83.0401 68.9146C84.3239 70.1839 85.4916 71.4713 86.5252 72.7659C87.6095 71.1413 88.4545 69.5383 89.0311 67.9898C89.6077 66.4413 89.9196 64.9544 89.9413 63.5619C90.3221 63.551 90.7029 63.4966 91.0801 63.395C91.4536 63.2935 91.8235 63.1412 92.1753 62.9381C92.3131 62.8583 92.4436 62.7749 92.5706 62.6842C92.6975 62.5936 92.8172 62.4957 92.9332 62.3941C93.6984 64.2908 94.2932 66.2709 94.6993 68.3198C95.1055 70.3688 95.3158 72.4867 95.3158 74.6517C95.3158 74.8113 95.3158 74.9745 95.3122 75.1341C95.3086 75.2936 95.305 75.4532 95.3013 75.6164C96.1209 72.9654 96.7338 70.3398 97.1291 67.7468C97.5244 65.1539 97.7057 62.5899 97.6658 60.0623C97.6078 56.2145 97.0493 52.4321 95.9976 48.7475C94.9459 45.063 93.401 41.4727 91.3738 38.0022C88.1643 32.5152 84.1969 28.0873 80.5595 24.7327C76.9221 21.3782 73.6148 19.0971 71.729 17.904C71.6709 17.8677 71.0327 17.4833 71.0327 17.4833C68.3853 15.9566 65.4152 15.1914 62.4487 15.1914C59.4786 15.1914 56.5121 15.9566 53.8647 17.4833L42.133 24.2577L30.3939 31.0284ZM35.8301 89.6764C35.8664 89.7417 35.9026 89.8069 35.9425 89.8722C35.9824 89.9375 36.0187 90.0028 36.0549 90.0644C36.9833 91.5912 38.4303 92.7299 40.2834 93.4879C42.1366 94.2458 44.3923 94.6193 46.9381 94.6193C47.2318 94.6193 47.5365 94.6085 47.8411 94.5939C48.1457 94.5794 48.4576 94.5577 48.7659 94.5359C48.1639 92.9947 47.6308 91.3446 47.1775 89.6002C46.7241 87.8559 46.347 86.0172 46.0569 84.1024C44.541 82.8912 43.1339 81.6437 41.8501 80.378C40.5663 79.1087 39.3986 77.8213 38.365 76.5266C36.7222 78.9854 35.6306 81.397 35.1773 83.6346C34.7276 85.8758 34.9126 87.932 35.8301 89.6764ZM36.9579 74.6481C35.9606 73.2229 35.1302 71.794 34.4701 70.3942C33.8137 68.9907 33.3314 67.609 33.0413 66.2709C32.6605 67.6018 32.3668 68.9726 32.1673 70.3688C31.9678 71.7687 31.8663 73.1975 31.8663 74.6481C31.8663 76.1023 31.9715 77.5276 32.1709 78.9274C32.3704 80.3272 32.6641 81.6944 33.0449 83.0254C33.335 81.6872 33.8174 80.3055 34.4738 78.902C35.1265 77.4986 35.9606 76.0733 36.9579 74.6481ZM45.3606 74.6481C45.3606 73.5855 45.386 72.5338 45.4367 71.5003C45.4875 70.4667 45.56 69.4477 45.6579 68.4468C44.5011 69.4549 43.424 70.4849 42.434 71.522C41.4439 72.5592 40.5409 73.6037 39.7286 74.6481C40.5373 75.6925 41.4439 76.737 42.434 77.7742C43.424 78.8114 44.5011 79.8377 45.6579 80.8494C45.5637 79.8485 45.4875 78.8295 45.4367 77.7959C45.386 76.7587 45.3606 75.7107 45.3606 74.6481ZM40.5373 95.9503C42.4847 97.9557 44.7078 99.6928 47.1376 101.107C49.5673 102.522 52.2111 103.606 55.0071 104.309C53.9917 103.388 53.0379 102.282 52.1494 101.017C51.2609 99.7472 50.4449 98.3148 49.7051 96.7409C49.2301 96.7844 48.7622 96.817 48.3017 96.8388C47.8411 96.8605 47.3842 96.8714 46.9345 96.8714C45.7414 96.8714 44.6063 96.7916 43.5364 96.6393C42.4739 96.4761 41.4693 96.2476 40.5373 95.9503ZM51.076 94.3002C52.3888 94.1225 53.7451 93.8614 55.1377 93.5241C56.5302 93.1869 57.9627 92.7662 59.4169 92.2657C58.4922 91.8451 57.5674 91.4026 56.6463 90.9312C55.7252 90.4634 54.8076 89.9665 53.901 89.4407C52.9799 88.9076 52.0841 88.36 51.2138 87.8015C50.3434 87.2394 49.4984 86.6664 48.6788 86.0825C48.9726 87.5839 49.3244 89.0272 49.7233 90.4017C50.1258 91.7761 50.5791 93.0781 51.076 94.3002ZM62.4451 91.127C63.6709 90.6229 64.9075 90.0753 66.1478 89.4733C67.388 88.8713 68.6283 88.2149 69.8686 87.5005C71.1052 86.7861 72.302 86.039 73.4479 85.2702C74.5939 84.5014 75.6928 83.7071 76.7408 82.8984C76.9185 81.5856 77.0563 80.2366 77.1506 78.8621C77.2449 77.4841 77.292 76.0806 77.292 74.6481C77.292 73.2193 77.2449 71.8122 77.1506 70.4341C77.0563 69.056 76.9185 67.7106 76.7408 66.3978C75.6928 65.5854 74.5939 64.7949 73.4479 64.026C72.302 63.2572 71.1088 62.5102 69.8686 61.7957C68.6283 61.0813 67.388 60.4249 66.1478 59.8229C64.9075 59.2209 63.6745 58.6697 62.4451 58.1692C61.2193 58.6733 59.9827 59.2209 58.7424 59.8229C57.5021 60.4249 56.2619 61.0813 55.0216 61.7957C53.785 62.5102 52.5882 63.2572 51.4422 64.026C50.2963 64.7949 49.1974 65.5891 48.1494 66.3978C47.9717 67.7106 47.8339 69.0596 47.7396 70.4341C47.6453 71.8122 47.5981 73.2156 47.5981 74.6481C47.5981 76.077 47.6453 77.4841 47.7396 78.8621C47.8339 80.2402 47.9717 81.5856 48.1494 82.8984C49.1974 83.7108 50.2963 84.5014 51.4422 85.2702C52.5882 86.039 53.7813 86.7861 55.0216 87.5005C56.2619 88.2149 57.5021 88.8713 58.7424 89.4733C59.9827 90.0753 61.2157 90.6265 62.4451 91.127ZM75.1814 52.559C75.6565 52.5155 76.1243 52.4828 76.5849 52.4611C77.0454 52.4393 77.5024 52.4284 77.9521 52.4284C79.1452 52.4284 80.2803 52.5082 81.3465 52.6605C82.4127 52.8129 83.4172 53.0413 84.3492 53.3423C82.4018 51.3369 80.1788 49.5998 77.749 48.1854C75.3192 46.7711 72.6755 45.6867 69.8794 44.9832C70.8949 45.9043 71.8486 47.0104 72.7371 48.2761C73.6256 49.5526 74.4416 50.9851 75.1814 52.559ZM73.8106 54.9924C72.4978 55.1701 71.1415 55.4312 69.7489 55.7685C68.3563 56.1094 66.9238 56.5264 65.4696 57.0269C66.3944 57.4475 67.3191 57.8936 68.2403 58.3614C69.1614 58.8292 70.0789 59.3261 70.9855 59.8519C71.9067 60.385 72.8024 60.9326 73.6728 61.4911C74.5431 62.0532 75.3881 62.6262 76.2077 63.2101C75.914 61.7087 75.5622 60.2653 75.1633 58.8909C74.7607 57.5164 74.3074 56.2145 73.8106 54.9924ZM62.4451 44.0693C60.4179 44.0693 58.4849 44.9071 56.7224 46.4266C54.96 47.9461 53.3715 50.1437 52.0334 52.86C53.6943 53.1175 55.406 53.491 57.1467 53.9733C58.8875 54.4557 60.6608 55.0504 62.4415 55.7503C64.2221 55.054 65.9954 54.4593 67.7362 53.9733C69.4769 53.491 71.1886 53.1139 72.8496 52.86C71.5114 50.1437 69.923 47.9461 68.1605 46.4266C66.4052 44.9071 64.4723 44.0693 62.4451 44.0693ZM54.9999 44.9941C52.2038 45.6976 49.5601 46.782 47.1267 48.1963C44.6933 49.607 42.4739 51.3441 40.5228 53.3496C41.4584 53.0486 42.463 52.8201 43.5328 52.6642C44.6026 52.5082 45.7377 52.4284 46.9381 52.4284C47.3878 52.4284 47.8447 52.4393 48.3053 52.4611C48.7659 52.4828 49.2337 52.5155 49.7088 52.559C50.4449 50.9851 51.2609 49.5562 52.1494 48.287C53.0379 47.0177 53.9844 45.9152 54.9999 44.9941ZM48.6788 63.2101C49.4984 62.6262 50.3434 62.0532 51.2138 61.4911C52.0841 60.929 52.9799 60.385 53.901 59.8519C54.8113 59.3261 55.7252 58.8329 56.6463 58.3614C57.5674 57.8936 58.4922 57.4475 59.4169 57.0269C57.9627 56.53 56.5302 56.1094 55.1377 55.7685C53.7451 55.4276 52.3851 55.1701 51.0723 54.9924C50.5755 56.2145 50.1222 57.5164 49.7196 58.8909C49.3244 60.2617 48.9762 61.7051 48.6788 63.2101ZM65.4696 92.2657C66.9238 92.7626 68.3527 93.1832 69.7489 93.5241C71.1451 93.865 72.5014 94.1225 73.8106 94.3002C74.3074 93.0781 74.7607 91.7761 75.1633 90.4017C75.5658 89.0272 75.914 87.5839 76.2077 86.0825C75.3881 86.6664 74.5431 87.2394 73.6728 87.8015C72.8024 88.3636 71.9067 88.9076 70.9855 89.4407C70.0753 89.9665 69.1614 90.4597 68.2403 90.9312C67.3191 91.4026 66.3944 91.8451 65.4696 92.2657ZM69.8903 104.299C72.6864 103.595 75.3301 102.511 77.7635 101.1C80.1969 99.6892 82.4163 97.9521 84.3674 95.9466C83.4317 96.2476 82.4272 96.4761 81.3574 96.632C80.2875 96.788 79.1525 96.8678 77.9521 96.8678C77.5024 96.8678 77.0454 96.8569 76.5849 96.8351C76.1243 96.8134 75.6565 96.7807 75.1814 96.7372C74.4452 98.3111 73.6256 99.74 72.7408 101.009C71.8559 102.275 70.9021 103.381 69.8903 104.299ZM88.8534 90.039C88.8896 89.9774 88.9223 89.9157 88.9585 89.8541C88.9912 89.7924 89.0275 89.7308 89.0601 89.6691C89.974 87.9248 90.1589 85.8686 89.7056 83.631C89.2523 81.3971 88.1607 78.9818 86.5179 76.5266C85.4844 77.8213 84.3202 79.1087 83.0328 80.378C81.749 81.6473 80.3419 82.8912 78.8261 84.1024C78.5359 86.0172 78.1588 87.8559 77.7055 89.6002C77.2522 91.3446 76.7191 92.9947 76.1171 94.5359C76.4253 94.5577 76.7372 94.5758 77.0418 94.5939C77.3464 94.6085 77.6511 94.6193 77.9448 94.6193C80.4943 94.6193 82.7572 94.2422 84.6176 93.4806C86.4816 92.7227 87.9322 91.5767 88.8534 90.039ZM79.5296 74.6481C79.5296 75.7107 79.5042 76.7624 79.4534 77.7959C79.4027 78.8295 79.3301 79.8485 79.2322 80.8494C80.3891 79.8413 81.4662 78.8114 82.4562 77.7742C83.4462 76.737 84.3493 75.6925 85.1616 74.6481C84.3529 73.6037 83.4462 72.5592 82.4562 71.522C81.4662 70.4849 80.3891 69.4586 79.2322 68.4468C79.3265 69.4477 79.4027 70.4667 79.4534 71.5003C79.5006 72.5338 79.5296 73.5855 79.5296 74.6481ZM91.8489 83.0254C92.2297 81.6944 92.5234 80.3236 92.7229 78.9274C92.9223 77.5276 93.0239 76.1023 93.0239 74.6481C93.0239 73.1939 92.9187 71.7687 92.7192 70.3688C92.5198 68.969 92.226 67.6018 91.8453 66.2709C91.5551 67.609 91.0728 68.9907 90.4164 70.3942C89.76 71.7977 88.9259 73.2229 87.9286 74.6481C88.9259 76.077 89.76 77.5022 90.4164 78.902C91.0764 80.3055 91.5551 81.6872 91.8489 83.0254ZM9.78807 42.9233L18.1291 47.7394L26.47 52.5554C30.4955 49.4438 35.326 46.7928 41.1212 44.8998C46.9163 43.0068 53.6762 41.8717 61.5638 41.7919C61.7089 41.7882 61.854 41.7846 62.0027 41.7846C62.1477 41.781 62.2964 41.781 62.4415 41.781C65.611 41.781 68.6754 42.2307 71.5767 43.072C74.4779 43.9134 77.2159 45.1428 79.7254 46.7022C77.836 44.6604 75.8668 42.8145 73.8142 41.1681C71.7616 39.5253 69.6292 38.0819 67.417 36.8489C64.0951 34.9958 60.5847 33.5996 56.9146 32.6676C53.2446 31.7355 49.415 31.2641 45.4476 31.2641C45.4005 31.2641 45.3533 31.2641 45.3062 31.2641C45.259 31.2641 45.2119 31.2641 45.1647 31.2641C38.8075 31.3004 32.9905 32.5225 28.2652 33.9949C23.5398 35.4672 19.9133 37.1898 17.9369 38.227C17.8752 38.2596 17.7048 38.3467 17.6721 38.3648L13.7265 40.6423L9.78807 42.9233ZM8.64209 80.5956C9.78807 76.378 11.5034 71.7143 14.0637 67.1267C16.6277 62.5392 20.0402 58.0242 24.5806 54.1075L16.6095 49.5091L8.64209 44.907V62.7531V80.5956ZM40.6932 124.215C35.054 118.536 29.0739 110.46 26.383 100.095C23.6921 89.7308 24.2905 77.0779 31.8083 62.2454C32.0911 62.5174 32.403 62.7568 32.7439 62.9562C33.0848 63.1557 33.4511 63.308 33.8391 63.4132C34.0241 63.4639 34.209 63.5002 34.394 63.5256C34.5789 63.551 34.7639 63.5655 34.9525 63.5691C34.9742 64.9617 35.2861 66.4486 35.8627 67.9935C36.4393 69.5384 37.2807 71.1413 38.365 72.7623C39.3986 71.4677 40.5627 70.1802 41.8501 68.911C43.1339 67.6417 44.541 66.3978 46.0569 65.1865C46.347 63.2717 46.7241 61.4331 47.1775 59.6887C47.6308 57.9444 48.1639 56.2943 48.7659 54.753C48.4576 54.7313 48.1457 54.7132 47.8411 54.695C47.5365 54.6805 47.2318 54.6696 46.9381 54.6696C45.3751 54.6696 43.9172 54.8147 42.5972 55.1012C41.2771 55.3877 40.0949 55.8192 39.0722 56.3922C38.7821 55.9208 38.4158 55.511 37.9951 55.1773C37.5708 54.8437 37.0921 54.5826 36.5663 54.4049C37.9625 52.6243 39.5364 50.9923 41.2626 49.5309C42.9888 48.073 44.8674 46.7856 46.8692 45.7049C44.1602 46.3178 41.5781 47.1047 39.1302 48.0585C36.6823 49.0123 34.3686 50.1401 32.1999 51.4384C28.8962 53.4149 25.9007 55.7866 23.2352 58.5391C20.5697 61.2916 18.2306 64.425 16.2396 67.9173C13.0918 73.4441 11.2423 79.0942 10.1543 83.9211C9.07002 88.748 8.74726 92.7517 8.6566 94.982C8.65297 95.0509 8.64209 95.7943 8.64209 95.7943C8.64209 98.8515 9.46531 101.803 10.9486 104.375C12.4318 106.946 14.5787 109.136 17.2261 110.663L28.9578 117.437L40.6932 124.215ZM61.2991 116.846C56.5049 114.881 51.7033 111.954 47.0868 107.765C42.4702 103.573 38.0386 98.1153 33.9806 91.0835H33.9842L33.9878 91.0798C32.5844 88.661 31.4819 86.0499 30.7312 83.2937C29.9805 80.5376 29.578 77.64 29.578 74.6481C29.578 74.4885 29.578 74.3254 29.5816 74.1658C29.5852 74.0062 29.5889 73.8466 29.5925 73.6835C28.7729 76.3344 28.16 78.96 27.7647 81.553C27.3694 84.146 27.1881 86.7099 27.228 89.2376C27.286 93.0853 27.8445 96.8678 28.8962 100.552C29.9479 104.237 31.4928 107.827 33.52 111.298C36.7295 116.785 40.6969 121.213 44.3343 124.567C47.9717 127.922 51.279 130.203 53.1612 131.396C53.2192 131.432 53.27 131.465 53.3099 131.49C53.3498 131.516 53.3824 131.537 53.4114 131.555L57.3535 133.833L61.2955 136.11V126.478V116.846H61.2991ZM94.4962 118.268C92.2804 118.855 89.8797 119.367 87.3411 119.733C84.8026 120.099 82.1226 120.317 79.3483 120.317C76.8315 120.317 74.2385 120.136 71.602 119.722C68.9656 119.309 66.2819 118.66 63.5874 117.72V126.917V136.114L79.04 127.193L94.4962 118.268ZM116.244 68.697C114.148 76.4215 110.145 85.6401 102.511 93.1542C94.8807 100.668 83.6203 106.478 67.0109 107.381C67.1523 106.808 67.1849 106.224 67.1124 105.655C67.0399 105.085 66.8622 104.531 66.5793 104.012C67.7761 103.298 68.9112 102.279 69.9629 101.002C71.0145 99.7255 71.9828 98.1915 72.8496 96.4362C71.1886 96.1787 69.4769 95.8052 67.7362 95.3229C65.9954 94.8406 64.2221 94.2458 62.4415 93.5459C60.6608 94.2422 58.8875 94.8369 57.1467 95.3229C55.406 95.8052 53.6943 96.1824 52.0334 96.4362C52.9001 98.1915 53.8684 99.7291 54.9201 101.006C55.9718 102.282 57.1105 103.298 58.3072 104.016C58.0461 104.498 57.8757 105.02 57.7995 105.557C57.7197 106.094 57.7342 106.648 57.8467 107.192C55.5475 106.87 53.3208 106.308 51.1993 105.532C49.0777 104.755 47.0542 103.769 45.1611 102.59C47.0505 104.632 49.0197 106.478 51.0723 108.124C53.1249 109.767 55.2573 111.211 57.4695 112.444C60.8313 114.319 64.3853 115.726 68.1061 116.658C71.8233 117.59 75.7073 118.047 79.7218 118.025C86.0791 117.989 91.896 116.766 96.6214 115.294C101.347 113.822 104.973 112.099 106.95 111.062C107.011 111.029 107.66 110.667 107.66 110.667C110.308 109.136 112.455 106.949 113.938 104.378C115.421 101.807 116.244 98.8551 116.244 95.798V82.2493V68.697ZM116.244 44.907L107.903 49.7231L99.5625 54.5391C100.259 59.6742 100.125 65.2953 98.8009 71.3879C97.4772 77.4804 94.9677 84.048 90.9096 91.0798L90.906 91.0762L90.9024 91.0726C89.3756 93.7055 87.4971 96.1062 85.3284 98.2132C83.1597 100.32 80.701 102.13 78.021 103.58C80.73 102.968 83.3121 102.181 85.76 101.227C88.2079 100.273 90.5216 99.1452 92.6902 97.8469C95.994 95.8741 98.9895 93.4987 101.655 90.7462C104.32 87.9937 106.66 84.8604 108.651 81.368C111.798 75.8449 113.648 70.1947 114.732 65.3679C115.817 60.541 116.139 56.5373 116.234 54.307C116.237 54.2381 116.244 54.0422 116.248 54.0096V49.4547V44.907H116.244Z" fill="#3B56A5"/>
<path d="M155.545 50.0454H159.044L159.353 51.8804H159.458C160.676 50.7091 162.134 49.6973 164.111 49.6973C167.259 49.6973 168.6 51.9203 168.6 55.5396V64.5297H164.31V56.0908C164.31 54.0056 163.752 53.3564 162.511 53.3564C161.434 53.3564 160.774 53.8569 159.831 54.7635V64.5333H155.541V50.0454H155.545Z" fill="#3B56A5"/>
<path d="M172.238 50.0454H175.737L176.046 51.8804H176.151C177.369 50.7091 178.827 49.6973 180.804 49.6973C183.951 49.6973 185.293 51.9203 185.293 55.5396V64.5297H181.003V56.0908C181.003 54.0056 180.445 53.3564 179.204 53.3564C178.127 53.3564 177.467 53.8569 176.524 54.7635V64.5333H172.234V50.0454H172.238Z" fill="#3B56A5"/>
<path d="M188.089 57.2912C188.089 52.4788 191.48 49.6973 195.143 49.6973C198.805 49.6973 202.196 52.4788 202.196 57.2912C202.196 62.0963 198.805 64.8779 195.143 64.8779C191.48 64.8742 188.089 62.0963 188.089 57.2912ZM197.801 57.2912C197.801 54.7853 196.92 53.157 195.146 53.157C193.373 53.157 192.492 54.7853 192.492 57.2912C192.492 59.7971 193.373 61.4145 195.146 61.4145C196.92 61.4145 197.801 59.7971 197.801 57.2912Z" fill="#3B56A5"/>
<path d="M203.357 50.0459H207.669L209.555 56.8819C209.925 58.3216 210.305 59.8157 210.679 61.3316H210.795C211.165 59.8157 211.546 58.3216 211.919 56.8819L213.805 50.0459H217.914L213.188 64.5266H208.242L203.357 50.0459Z" fill="#3B56A5"/>
<path d="M218.911 60.5115C218.911 57.4616 221.337 55.8079 227.064 55.2059C226.976 53.9403 226.345 53.1134 224.775 53.1134C223.56 53.1134 222.349 53.6248 220.942 54.4226L219.415 51.6048C221.254 50.4806 223.325 49.6973 225.598 49.6973C229.301 49.6973 231.35 51.8115 231.35 56.2504V64.5297H227.85L227.542 63.0465H227.437C226.219 64.1163 224.851 64.8815 223.223 64.8815C220.587 64.8742 218.911 62.9486 218.911 60.5115ZM227.064 60.3193V57.7917C224.014 58.2051 223.016 59.0754 223.016 60.1706C223.016 61.1027 223.658 61.5596 224.677 61.5596C225.653 61.556 226.302 61.0773 227.064 60.3193Z" fill="#3B56A5"/>
<path d="M233.678 62.8543L235.608 60.1815C236.92 61.1752 238.132 61.701 239.343 61.701C240.619 61.701 241.171 61.2151 241.171 60.4571C241.171 59.5034 239.735 59.0718 238.244 58.4879C236.471 57.8025 234.411 56.6239 234.411 54.2304C234.411 51.5359 236.601 49.6973 239.941 49.6973C242.161 49.6973 243.811 50.593 245.044 51.5323L243.125 54.1071C242.095 53.36 241.08 52.8705 240.075 52.8705C238.966 52.8705 238.422 53.3057 238.422 54.0273C238.422 54.9521 239.778 55.3039 241.279 55.8515C243.114 56.5296 245.178 57.5632 245.178 60.2105C245.178 62.8289 243.111 64.8815 239.23 64.8815C237.326 64.8742 235.143 64.0474 233.678 62.8543Z" fill="#3B56A5"/>
<path d="M255.503 69.8938L256.264 66.6227C256.533 66.6916 256.928 66.8077 257.24 66.8077C258.654 66.8077 259.398 66.028 259.775 64.9074L259.992 64.153L254.407 50.0459H258.719L260.79 56.2763C261.207 57.589 261.552 58.9599 261.932 60.3778H262.049C262.371 59.007 262.694 57.6362 263.053 56.2763L264.808 50.0459H268.917L263.891 64.6825C262.516 68.309 260.971 70.1876 257.57 70.1876C256.667 70.1876 256.094 70.0715 255.503 69.8938Z" fill="#3B56A5"/>
<path d="M269.896 60.5115C269.896 57.4616 272.322 55.8079 278.049 55.2059C277.962 53.9403 277.331 53.1134 275.76 53.1134C274.545 53.1134 273.334 53.6248 271.927 54.4226L270.4 51.6048C272.239 50.4806 274.31 49.6973 276.584 49.6973C280.286 49.6973 282.335 51.8115 282.335 56.2504V64.5297H278.836L278.527 63.0465H278.422C277.204 64.1163 275.836 64.8815 274.208 64.8815C271.572 64.8742 269.896 62.9486 269.896 60.5115ZM278.052 60.3193V57.7917C275.002 58.2051 274.005 59.0754 274.005 60.1706C274.005 61.1027 274.647 61.5596 275.666 61.5596C276.638 61.556 277.291 61.0773 278.052 60.3193Z" fill="#3B56A5"/>
<path d="M290.241 50.0459H294.553L296.439 56.8819C296.809 58.3216 297.189 59.8157 297.563 61.3316H297.679C298.049 59.8157 298.43 58.3216 298.803 56.8819L300.689 50.0459H304.798L300.072 64.5266H295.126L290.241 50.0459Z" fill="#3B56A5"/>
<path d="M306.216 57.8751C306.216 57.1026 306.31 56.3193 306.394 55.9675H315.057C314.72 53.9185 313.538 52.9648 311.732 52.9648C310.615 52.9648 309.578 53.3093 308.559 53.933L307.141 51.1551C308.707 50.1071 310.651 49.6973 312.464 49.6973C316.283 49.6973 319.213 52.5658 319.213 57.2803C319.213 61.9767 316.051 64.8742 312.435 64.8742C308.323 64.8742 306.216 61.8787 306.216 57.8751ZM315.104 58.8071H309.882C309.882 60.4608 310.615 61.6067 312.341 61.6067C313.748 61.6067 314.818 60.7618 315.104 58.8071Z" fill="#3B56A5"/>
<path d="M343.232 64.5264L338.927 56.918C340.958 56.0005 342.314 54.2235 342.314 51.4275C342.314 46.9052 339.007 45.5054 334.974 45.5054H328.124V64.5264H332.425V57.6796H334.789L338.419 64.5264H343.232ZM332.425 48.9179H334.626C336.889 48.9179 338.104 49.5453 338.104 51.4275C338.104 53.2988 336.889 54.267 334.626 54.267H332.425V48.9179Z" fill="#3B56A5"/>
<path d="M344.827 57.8751C344.827 57.1026 344.922 56.3193 345.005 55.9675H353.669C353.332 53.9185 352.149 52.9648 350.343 52.9648C349.226 52.9648 348.189 53.3093 347.17 53.933L345.752 51.1551C347.319 50.1071 349.263 49.6973 351.076 49.6973C354.895 49.6973 357.825 52.5658 357.825 57.2803C357.825 61.9767 354.663 64.8742 351.047 64.8742C346.934 64.8742 344.827 61.8787 344.827 57.8751ZM353.716 58.8071H348.494C348.494 60.4608 349.226 61.6067 350.953 61.6067C352.36 61.6067 353.429 60.7618 353.716 58.8071Z" fill="#3B56A5"/>
<path d="M369.43 65.4837L369.586 63.2715C368.639 64.2072 367.254 64.8744 365.952 64.8744C362.354 64.8744 360.03 62.0168 360.03 57.2878C360.03 52.5515 362.985 49.6938 366.035 49.6938C367.609 49.6938 368.752 50.2414 369.901 51.4708H370.006L370.365 50.042H373.72V69.8935H369.43V65.4837ZM369.43 60.0693V54.1255C368.672 53.4473 367.82 53.2079 367.033 53.2079C365.644 53.2079 364.425 54.4917 364.425 57.2443C364.425 60.0874 365.408 61.3676 367.069 61.3676C367.983 61.364 368.719 61.0195 369.43 60.0693Z" fill="#3B56A5"/>
<path d="M376.668 57.8751C376.668 57.1026 376.762 56.3193 376.846 55.9675H385.509C385.172 53.9185 383.99 52.9648 382.184 52.9648C381.067 52.9648 380.03 53.3093 379.011 53.933L377.593 51.1551C379.159 50.1071 381.103 49.6973 382.916 49.6973C386.735 49.6973 389.665 52.5658 389.665 57.2803C389.665 61.9767 386.503 64.8742 382.887 64.8742C378.775 64.8742 376.668 61.8787 376.668 57.8751ZM385.56 58.8071H380.338C380.338 60.4608 381.071 61.6067 382.797 61.6067C384.2 61.6067 385.27 60.7618 385.56 58.8071Z" fill="#3B56A5"/>
<path d="M392.614 50.0456H396.114L396.422 51.9024H396.527C397.717 50.7093 399.011 49.6938 400.915 49.6938C402.95 49.6938 404.179 50.5715 404.912 52.1309C406.184 50.8036 407.544 49.6938 409.459 49.6938C412.589 49.6938 413.989 51.9169 413.989 55.5362V64.5263H409.698V56.0874C409.698 54.0022 409.129 53.353 407.911 53.353C407.182 53.353 406.358 53.8063 405.445 54.7601V64.5299H401.154V56.091C401.154 54.0058 400.585 53.3566 399.367 53.3566C398.649 53.3566 397.814 53.8099 396.901 54.7637V64.5336H392.61V50.0456H392.614Z" fill="#3B56A5"/>
<path d="M416.346 62.8543L418.275 60.1815C419.588 61.1752 420.799 61.701 422.01 61.701C423.287 61.701 423.838 61.2151 423.838 60.4571C423.838 59.5034 422.402 59.0718 420.911 58.4879C419.138 57.8025 417.078 56.6239 417.078 54.2304C417.078 51.5359 419.269 49.6973 422.609 49.6973C424.828 49.6973 426.478 50.593 427.711 51.5323L425.793 54.1071C424.763 53.36 423.747 52.8705 422.743 52.8705C421.633 52.8705 421.089 53.3057 421.089 54.0273C421.089 54.9521 422.445 55.3039 423.947 55.8515C425.778 56.5296 427.845 57.5632 427.845 60.2105C427.845 62.8289 425.778 64.8815 421.898 64.8815C419.994 64.8742 417.811 64.0474 416.346 62.8543Z" fill="#3B56A5"/>
<path d="M429.891 60.5115C429.891 57.4616 432.317 55.8079 438.043 55.2059C437.956 53.9403 437.325 53.1134 435.755 53.1134C434.54 53.1134 433.329 53.6248 431.922 54.4226L430.395 51.6048C432.234 50.4806 434.304 49.6973 436.578 49.6973C440.281 49.6973 442.33 51.8115 442.33 56.2504V64.5297H438.83L438.522 63.0465H438.417C437.198 64.1163 435.831 64.8815 434.203 64.8815C431.566 64.8742 429.891 62.9486 429.891 60.5115ZM438.043 60.3193V57.7917C434.993 58.2051 433.996 59.0754 433.996 60.1706C433.996 61.1027 434.638 61.5596 435.657 61.5596C436.629 61.556 437.282 61.0773 438.043 60.3193Z" fill="#3B56A5"/>
<path d="M445.935 60.0259V44.0801H450.225V60.1999C450.225 61.1211 450.649 61.4112 451.001 61.4112C451.164 61.4112 451.284 61.4112 451.527 61.3532L452.038 64.5155C451.563 64.7186 450.859 64.8745 449.884 64.8745C446.943 64.8745 445.935 62.9561 445.935 60.0259Z" fill="#3B56A5"/>
<path d="M155.552 85.0669H159.052L159.36 86.9019H159.465C160.684 85.7305 162.142 84.7188 164.118 84.7188C167.266 84.7188 168.608 86.9418 168.608 90.5611V99.5512H164.317V91.1123C164.317 89.0271 163.759 88.3779 162.519 88.3779C161.442 88.3779 160.782 88.8784 159.839 89.785V99.5548H155.549V85.0669H155.552Z" fill="#3B56A5"/>
<path d="M172.245 79.1011H176.441V90.8147H176.546L181.137 85.0667H185.794L180.724 91.0359L186.178 99.5474H181.529L178.272 93.9009L176.437 95.9825V99.5474H172.241V79.1011H172.245Z" fill="#3B56A5"/>
<path d="M206.519 95.2286C206.519 92.5812 204.452 91.5477 202.621 90.8695C201.119 90.3219 199.763 89.9701 199.763 89.0454C199.763 88.3237 200.307 87.8885 201.417 87.8885C202.418 87.8885 203.437 88.3745 204.467 89.1252L206.385 86.5503C205.152 85.6147 203.502 84.7153 201.283 84.7153C197.943 84.7153 195.752 86.554 195.752 89.2485C195.752 91.642 197.808 92.8206 199.585 93.506C201.076 94.0899 202.512 94.5214 202.512 95.4752C202.512 96.2331 201.961 96.7191 200.684 96.7191C199.473 96.7191 198.262 96.1896 196.949 95.1996L195.02 97.8723C196.332 98.9422 198.225 99.7182 199.977 99.8669L198.78 102.286C200.55 102.518 201.007 102.928 201.007 103.515C201.007 104.342 200.296 104.676 198.015 104.803L198.334 106.522C201.972 106.395 204.093 105.492 204.093 103.504C204.093 102.289 203.324 101.666 201.859 101.328L202.577 99.6856C205.159 99.1053 206.519 97.3537 206.519 95.2286Z" fill="#3B56A5"/>
<path d="M208.557 95.533C208.557 92.4831 210.984 90.8294 216.71 90.2274C216.623 88.9618 215.992 88.1349 214.421 88.1349C213.207 88.1349 211.995 88.6463 210.588 89.4441L209.061 86.6263C210.9 85.5021 212.971 84.7188 215.245 84.7188C218.947 84.7188 220.996 86.833 220.996 91.2719V99.5512H217.497L217.188 98.068H217.083C215.865 99.1378 214.498 99.903 212.869 99.903C210.233 99.8994 208.557 97.97 208.557 95.533ZM216.71 95.3408V92.8131C213.66 93.2266 212.663 94.0969 212.663 95.1921C212.663 96.1241 213.304 96.5811 214.324 96.5811C215.299 96.5811 215.948 96.0988 216.71 95.3408Z" fill="#3B56A5"/>
<path d="M231.288 82.1188C231.767 82.1188 232.3 82.2349 232.79 82.4307L233.562 79.2684C232.92 79.0254 231.883 78.7534 230.675 78.7534C226.766 78.7534 225.348 81.263 225.348 84.3201V85.0889L223.422 85.234V88.4362H225.348V99.5479H229.638V88.4362H232.246V85.0708H229.638V84.1968C229.635 82.6954 230.24 82.1188 231.288 82.1188Z" fill="#3B56A5"/>
<path d="M257.551 99.5479H262.103L256.13 80.5269H250.984L245.007 99.5479H249.403L250.578 95.0184H256.376L257.551 99.5479ZM251.448 91.6748L251.905 89.9159C252.434 88.0156 252.942 85.7889 253.403 83.7798H253.519C254.026 85.7635 254.534 88.012 255.064 89.9159L255.517 91.6748H251.448Z" fill="#3B56A5"/>
<path d="M278.698 92.3127C278.698 87.6163 282.049 84.7188 285.526 84.7188C289.65 84.7188 291.695 87.7179 291.695 91.6672C291.695 92.4396 291.601 93.2121 291.517 93.5638H282.854C283.238 95.6636 284.678 96.6282 286.611 96.6282C287.706 96.6282 288.692 96.2946 289.741 95.6817L291.158 98.2674C289.675 99.2937 287.739 99.8993 286.02 99.8993C281.893 99.8993 278.698 97.1069 278.698 92.3127ZM288.029 90.7279C288.029 89.1358 287.336 87.9899 285.624 87.9899C284.268 87.9899 283.1 88.9001 282.807 90.7279H288.029Z" fill="#3B56A5"/>
<path d="M294.658 85.0669H298.158L298.466 86.9019H298.571C299.79 85.7305 301.248 84.7188 303.224 84.7188C306.372 84.7188 307.714 86.9418 307.714 90.5611V99.5512H303.423V91.1123C303.423 89.0271 302.865 88.3779 301.625 88.3779C300.548 88.3779 299.888 88.8784 298.945 89.785V99.5548H294.655V85.0669H294.658Z" fill="#3B56A5"/>
<path d="M311.931 94.2859V88.4363H309.955V85.2341L312.174 85.0673L312.675 81.2231H316.221V85.0673H319.692V88.4327H316.221V94.2315C316.221 95.8743 316.965 96.5307 318.096 96.5307C318.575 96.5307 319.094 96.3929 319.474 96.2551L320.153 99.3702C319.384 99.6132 318.339 99.8961 316.936 99.8961C313.353 99.8997 311.931 97.6404 311.931 94.2859Z" fill="#3B56A5"/>
<path d="M322.528 95.0469V79.1011H326.818V95.2246C326.818 96.1457 327.242 96.4358 327.594 96.4358C327.757 96.4358 327.877 96.4358 328.12 96.3778L328.631 99.5401C328.156 99.7432 327.453 99.8991 326.477 99.8991C323.532 99.8991 322.528 97.9771 322.528 95.0469Z" fill="#3B56A5"/>
<path d="M338.492 104.918L339.253 101.647C339.522 101.716 339.917 101.832 340.229 101.832C341.643 101.832 342.387 101.052 342.764 99.9318L342.981 99.1775L337.396 85.0703H341.708L343.779 91.3007C344.196 92.6135 344.541 93.9843 344.922 95.4023H345.038C345.36 94.0314 345.683 92.6606 346.042 91.3007L347.801 85.0703H351.91L346.883 99.7069C345.509 103.333 343.964 105.212 340.562 105.212C339.656 105.208 339.083 105.092 338.492 104.918Z" fill="#3B56A5"/>
<path d="M277.109 97.071C277.109 101.619 273.987 103.802 269.262 103.802C267.002 103.802 265.323 103.269 264.079 102.659L265.222 99.7873C266.263 100.346 267.557 100.828 269.16 100.828C271.343 100.828 272.895 99.8634 272.895 97.2197V96.4327H272.845C271.953 97.6512 270.582 98.4382 268.779 98.4382C265.374 98.4382 263.14 95.6675 263.14 91.8343C263.14 88.0265 265.425 84.9512 268.928 84.9512C270.759 84.9512 272.232 85.7889 273.247 87.2141H273.298L273.4 85.2304H277.106V97.071H277.109ZM273.044 91.711C273.044 89.5278 272.029 88.0011 270.223 88.0011C268.37 88.0011 267.405 89.6511 267.405 91.7618C267.405 93.818 268.319 95.4717 270.201 95.4717C272.032 95.4681 273.044 93.8942 273.044 91.711Z" fill="#3B56A5"/>
<path d="M147.117 45.5054H151.418V64.5264H147.117V45.5054ZM147.11 40.5298H151.425V44.0874H147.11V40.5298Z" fill="#3B56A5"/>
<path d="M147.124 80.5266H151.425V99.5477H147.124V80.5266ZM147.117 75.5547H151.432V79.1123H147.117V75.5547Z" fill="#3B56A5"/>
<path d="M247.887 50.0457H252.177V64.5264H247.887V50.0457ZM247.876 43.9097H252.192V47.4673H247.876V43.9097Z" fill="#3B56A5"/>
<path d="M188.238 85.0672H192.528V99.5479H188.238V85.0672ZM188.231 78.9312H192.546V82.4888H188.231V78.9312Z" fill="#3B56A5"/>
<path d="M330.876 85.0672H335.166V99.5479H330.876V85.0672ZM330.865 78.9312H335.181V82.4888H330.865V78.9312Z" fill="#3B56A5"/>
<path d="M354.137 85.0672H358.427V99.5479H354.137V85.0672ZM354.126 78.9312H358.441V82.4888H354.126V78.9312Z" fill="#3B56A5"/>
</svg>
