<svg width="55" height="55" viewBox="0 0 55 55" fill="none" xmlns="http://www.w3.org/2000/svg">
<path d="M44.1847 41.7527C44.3444 41.9124 44.4711 42.102 44.5575 42.3106C44.644 42.5193 44.6884 42.7429 44.6884 42.9687C44.6884 43.1946 44.644 43.4182 44.5575 43.6268C44.4711 43.8355 44.3444 44.0251 44.1847 44.1847C44.0251 44.3444 43.8355 44.4711 43.6268 44.5575C43.4182 44.644 43.1946 44.6884 42.9687 44.6884C42.7429 44.6884 42.5193 44.644 42.3106 44.5575C42.102 44.4711 41.9124 44.3444 41.7527 44.1847L27.5 29.9299L13.2472 44.1847C12.9247 44.5073 12.4873 44.6884 12.0312 44.6884C11.5751 44.6884 11.1377 44.5073 10.8152 44.1847C10.4927 43.8622 10.3115 43.4248 10.3115 42.9687C10.3115 42.5126 10.4927 42.0752 10.8152 41.7527L25.0701 27.5L10.8152 13.2472C10.4927 12.9247 10.3115 12.4873 10.3115 12.0312C10.3115 11.5751 10.4927 11.1377 10.8152 10.8152C11.1377 10.4927 11.5751 10.3115 12.0312 10.3115C12.4873 10.3115 12.9247 10.4927 13.2472 10.8152L27.5 25.0701L41.7527 10.8152C42.0752 10.4927 42.5126 10.3115 42.9687 10.3115C43.4248 10.3115 43.8622 10.4927 44.1847 10.8152C44.5073 11.1377 44.6884 11.5751 44.6884 12.0312C44.6884 12.4873 44.5073 12.9247 44.1847 13.2472L29.9299 27.5L44.1847 41.7527Z" fill="black"/>
</svg>
