<svg width="88" height="88" viewBox="0 0 88 88" fill="none" xmlns="http://www.w3.org/2000/svg">
<path d="M44.116 33.512C38.264 33.512 33.512 38.264 33.512 44.116C33.512 49.968 38.264 54.72 44.116 54.72C49.968 54.72 54.72 49.968 54.72 44.116C54.72 38.264 49.968 33.512 44.116 33.512Z" fill="#FF8100"/>
<path d="M44 0C19.712 0 0 19.712 0 44C0 68.288 19.712 88 44 88C68.288 88 88 68.288 88 44C88 19.712 68.288 0 44 0ZM44 69.696C29.788 69.696 18.304 58.168 18.304 44C18.304 29.832 29.832 18.304 44 18.304C58.168 18.304 69.696 29.832 69.696 44C69.696 58.168 58.168 69.696 44 69.696Z" fill="#4141AF"/>
</svg>
