<svg width="20" height="20" viewBox="0 0 20 20" fill="none" xmlns="http://www.w3.org/2000/svg">
<path d="M10.2485 5.23378C12.8496 5.23378 14.9966 7.38075 14.9966 9.98189C14.9966 12.6243 12.8496 14.73 10.2485 14.73C7.60607 14.73 5.50039 12.6243 5.50039 9.98189C5.50039 7.38075 7.60607 5.23378 10.2485 5.23378ZM10.2485 13.0785C11.9413 13.0785 13.3038 11.716 13.3038 9.98189C13.3038 8.28909 11.9413 6.92659 10.2485 6.92659C8.51441 6.92659 7.1519 8.28909 7.1519 9.98189C7.1519 11.716 8.55569 13.0785 10.2485 13.0785ZM16.2765 5.06863C16.2765 5.68795 15.7811 6.1834 15.1618 6.1834C14.5424 6.1834 14.047 5.68795 14.047 5.06863C14.047 4.44931 14.5424 3.95385 15.1618 3.95385C15.7811 3.95385 16.2765 4.44931 16.2765 5.06863ZM19.4144 6.1834C19.497 7.71106 19.497 12.294 19.4144 13.8217C19.3318 15.308 19.0015 16.588 17.9281 17.7027C16.8546 18.7762 15.5334 19.1065 14.047 19.1891C12.5193 19.2717 7.93637 19.2717 6.40872 19.1891C4.92235 19.1065 3.64243 18.7762 2.52765 17.7027C1.45417 16.588 1.12386 15.308 1.04129 13.8217C0.958712 12.294 0.958712 7.71106 1.04129 6.1834C1.12386 4.69704 1.45417 3.37582 2.52765 2.30234C3.64243 1.22885 4.92235 0.898547 6.40872 0.815971C7.93637 0.733395 12.5193 0.733395 14.047 0.815971C15.5334 0.898547 16.8546 1.22885 17.9281 2.30234C19.0015 3.37582 19.3318 4.69704 19.4144 6.1834ZM17.4326 15.4319C17.9281 14.2346 17.8042 11.3444 17.8042 9.98189C17.8042 8.66068 17.9281 5.77052 17.4326 4.53189C17.1023 3.74741 16.483 3.08681 15.6985 2.79779C14.4599 2.30234 11.5697 2.4262 10.2485 2.4262C8.886 2.4262 5.99584 2.30234 4.79849 2.79779C3.97273 3.1281 3.35341 3.74741 3.02311 4.53189C2.52765 5.77052 2.65152 8.66068 2.65152 9.98189C2.65152 11.3444 2.52765 14.2346 3.02311 15.4319C3.35341 16.2577 3.97273 16.877 4.79849 17.2073C5.99584 17.7027 8.886 17.5789 10.2485 17.5789C11.5697 17.5789 14.4599 17.7027 15.6985 17.2073C16.483 16.877 17.1436 16.2577 17.4326 15.4319Z" fill="white"/>
</svg>
