<svg width="19" height="19" viewBox="0 0 19 19" fill="none" xmlns="http://www.w3.org/2000/svg">
<path d="M4.13026 18.9092H0.29048V6.56408H4.13026V18.9092ZM2.18973 4.91257C0.992375 4.91257 0.00146484 3.88037 0.00146484 2.64173C0.00146484 1.44438 0.992375 0.453469 2.18973 0.453469C3.42836 0.453469 4.41927 1.44438 4.41927 2.64173C4.41927 3.88037 3.42836 4.91257 2.18973 4.91257ZM18.4572 18.9092H14.6587V12.9224C14.6587 11.4773 14.6174 9.66068 12.6356 9.66068C10.6538 9.66068 10.3647 11.1883 10.3647 12.7986V18.9092H6.52496V6.56408H10.1996V8.25689H10.2409C10.7776 7.30727 12.0163 6.27507 13.8742 6.27507C17.7553 6.27507 18.4985 8.83492 18.4985 12.138V18.9092H18.4572Z" fill="white"/>
</svg>
