<svg width="22" height="18" viewBox="0 0 22 18" fill="none" xmlns="http://www.w3.org/2000/svg">
<path d="M19.499 4.68795C19.499 4.89439 19.499 5.05954 19.499 5.26598C19.499 11.005 15.1638 17.5698 7.19521 17.5698C4.71793 17.5698 2.4471 16.8679 0.547852 15.6293C0.878155 15.6705 1.20846 15.7118 1.58005 15.7118C3.60316 15.7118 5.46112 15.0099 6.94748 13.8539C5.04824 13.8126 3.43801 12.5739 2.90126 10.8399C3.19028 10.8811 3.43801 10.9224 3.72702 10.9224C4.09861 10.9224 4.51149 10.8399 4.8418 10.7573C2.85998 10.3444 1.37361 8.6103 1.37361 6.50462V6.46333C1.95164 6.79363 2.65354 6.95879 3.35543 7.00007C2.15808 6.2156 1.4149 4.89439 1.4149 3.40802C1.4149 2.58226 1.62134 1.83908 1.99293 1.21976C4.1399 3.8209 7.36036 5.555 10.9524 5.76143C10.8698 5.43113 10.8285 5.10083 10.8285 4.77052C10.8285 2.37582 12.7691 0.43529 15.1638 0.43529C16.4024 0.43529 17.5172 0.930745 18.343 1.79779C19.2926 1.59135 20.2422 1.21976 21.068 0.724306C20.7377 1.7565 20.077 2.58226 19.1687 3.11901C20.0358 3.03643 20.9028 2.7887 21.646 2.4584C21.068 3.32545 20.3248 4.06863 19.499 4.68795Z" fill="white"/>
</svg>
